SourceSans_ExtraLight-Italic.ufo
<glyph name="dollar" format="2">
	<unicode hex="0024"/>
	<advance width="456"/>
	<outline>
		<contour>
			<point x="194" y="-12" type="curve" smooth="yes"/>
			<point x="304" y="-12"/>
			<point x="378" y="70"/>
			<point x="378" y="170" type="curve" smooth="yes"/>
			<point x="378" y="352"/>
			<point x="156" y="354"/>
			<point x="156" y="498" type="curve" smooth="yes"/>
			<point x="156" y="574"/>
			<point x="216" y="626"/>
			<point x="294" y="626" type="curve" smooth="yes"/>
			<point x="346" y="626"/>
			<point x="388" y="592"/>
			<point x="416" y="550" type="curve"/>
			<point x="438" y="568" type="line"/>
			<point x="410" y="612"/>
			<point x="354" y="652"/>
			<point x="296" y="652" type="curve" smooth="yes"/>
			<point x="200" y="652"/>
			<point x="128" y="584"/>
			<point x="128" y="492" type="curve" smooth="yes"/>
			<point x="128" y="338"/>
			<point x="350" y="336"/>
			<point x="350" y="164" type="curve" smooth="yes"/>
			<point x="350" y="76"/>
			<point x="282" y="14"/>
			<point x="194" y="14" type="curve" smooth="yes"/>
			<point x="128" y="14"/>
			<point x="76" y="56"/>
			<point x="46" y="98" type="curve"/>
			<point x="25" y="78" type="line"/>
			<point x="58" y="36"/>
			<point x="120" y="-12"/>
		</contour>
		<contour>
			<point x="148" y="-110" type="line"/>
			<point x="176" y="-110" type="line"/>
			<point x="196" y="-8" type="line"/>
			<point x="168" y="-8" type="line"/>
		</contour>
		<contour>
			<point x="291" y="634" type="line"/>
			<point x="319" y="634" type="line"/>
			<point x="343" y="750" type="line"/>
			<point x="315" y="750" type="line"/>
		</contour>
	</outline>
</glyph>
<glyph name="ampersand" format="2">
	<unicode hex="0026"/>
	<advance width="542"/>
	<outline>
		<contour>
			<point x="163" y="-12" type="curve" smooth="yes"/>
			<point x="238" y="-12"/>
			<point x="306" y="26"/>
			<point x="364" y="84" type="curve" smooth="yes"/>
			<point x="432" y="152"/>
			<point x="488" y="243"/>
			<point x="534" y="341" type="curve"/>
			<point x="506" y="341" type="line"/>
			<point x="462" y="247"/>
			<point x="414" y="167"/>
			<point x="347" y="102" type="curve" smooth="yes"/>
			<point x="295" y="52"/>
			<point x="232" y="14"/>
			<point x="170" y="14" type="curve" smooth="yes"/>
			<point x="99" y="14"/>
			<point x="46" y="64"/>
			<point x="46" y="140" type="curve" smooth="yes"/>
			<point x="46" y="340"/>
			<point x="414" y="380"/>
			<point x="414" y="584" type="curve" smooth="yes"/>
			<point x="414" y="630"/>
			<point x="388" y="672"/>
			<point x="328" y="672" type="curve" smooth="yes"/>
			<point x="250" y="672"/>
			<point x="176" y="597"/>
			<point x="176" y="482" type="curve" smooth="yes"/>
			<point x="176" y="348"/>
			<point x="254" y="184"/>
			<point x="343" y="84" type="curve" smooth="yes"/>
			<point x="385" y="36"/>
			<point x="427" y="4"/>
			<point x="464" y="-12" type="curve"/>
			<point x="478" y="12" type="line"/>
			<point x="441" y="28"/>
			<point x="404" y="61"/>
			<point x="364" y="104" type="curve" smooth="yes"/>
			<point x="276" y="200"/>
			<point x="204" y="358"/>
			<point x="204" y="486" type="curve" smooth="yes"/>
			<point x="204" y="577"/>
			<point x="255" y="646"/>
			<point x="326" y="646" type="curve" smooth="yes"/>
			<point x="369" y="646"/>
			<point x="386" y="612"/>
			<point x="386" y="577" type="curve" smooth="yes"/>
			<point x="386" y="394"/>
			<point x="16" y="358"/>
			<point x="16" y="134" type="curve" smooth="yes"/>
			<point x="16" y="44"/>
			<point x="79" y="-12"/>
		</contour>
	</outline>
</glyph>
<glyph name="S" format="2">
	<unicode hex="0053"/>
	<advance width="488"/>
	<outline>
		<contour>
			<point x="226" y="-12" type="curve" smooth="yes"/>
			<point x="346" y="-12"/>
			<point x="438" y="64"/>
			<point x="438" y="180" type="curve" smooth="yes"/>
			<point x="438" y="252"/>
			<point x="396" y="298"/>
			<point x="334" y="334" type="curve" smooth="yes"/>
			<point x="248" y="384" type="line" smooth="yes"/>
			<point x="202" y="410"/>
			<point x="160" y="446"/>
			<point x="160" y="510" type="curve" smooth="yes"/>
			<point x="160" y="576"/>
			<point x="218" y="646"/>
			<point x="308" y="646" type="curve" smooth="yes"/>
			<point x="380" y="646"/>
			<point x="434" y="610"/>
			<point x="468" y="566" type="curve"/>
			<point x="490" y="584" type="line"/>
			<point x="456" y="632"/>
			<point x="394" y="672"/>
			<point x="314" y="672" type="curve" smooth="yes"/>
			<point x="204" y="672"/>
			<point x="130" y="594"/>
			<point x="130" y="506" type="curve" smooth="yes"/>
			<point x="130" y="436"/>
			<point x="180" y="390"/>
			<point x="234" y="358" type="curve" smooth="yes"/>
			<point x="322" y="306" type="line" smooth="yes"/>
			<point x="374" y="276"/>
			<point x="408" y="236"/>
			<point x="408" y="176" type="curve" smooth="yes"/>
			<point x="408" y="78"/>
			<point x="330" y="14"/>
			<point x="230" y="14" type="curve" smooth="yes"/>
			<point x="144" y="14"/>
			<point x="84" y="50"/>
			<point x="42" y="114" type="curve"/>
			<point x="18" y="98" type="line"/>
			<point x="62" y="28"/>
			<point x="132" y="-12"/>
		</contour>
	</outline>
	<anchor name="aboveUC" x="332" y="682"/>
	<anchor name="baseLC" x="210" y="0"/>
	<anchor name="belowLC" x="210" y="-22"/>
</glyph>
<glyph name="U" format="2">
	<unicode hex="0055"/>
	<advance width="594"/>
	<outline>
		<contour>
			<point x="268" y="-12" type="curve" smooth="yes"/>
			<point x="370" y="-12"/>
			<point x="462" y="40"/>
			<point x="500" y="230" type="curve" smooth="yes"/>
			<point x="586" y="660" type="line"/>
			<point x="556" y="660" type="line"/>
			<point x="472" y="238" type="line" smooth="yes"/>
			<point x="438" y="66"/>
			<point x="360" y="14"/>
			<point x="272" y="14" type="curve" smooth="yes"/>
			<point x="166" y="14"/>
			<point x="112" y="78"/>
			<point x="112" y="188" type="curve" smooth="yes"/>
			<point x="112" y="212"/>
			<point x="114" y="238"/>
			<point x="122" y="270" type="curve" smooth="yes"/>
			<point x="200" y="660" type="line"/>
			<point x="170" y="660" type="line"/>
			<point x="90" y="262" type="line" smooth="yes"/>
			<point x="84" y="230"/>
			<point x="82" y="206"/>
			<point x="82" y="180" type="curve" smooth="yes"/>
			<point x="82" y="58"/>
			<point x="152" y="-12"/>
		</contour>
	</outline>
	<anchor name="aboveUC" x="380" y="682"/>
	<anchor name="belowLC" x="240" y="-22"/>
	<anchor name="hornLC" x="570" y="672"/>
	<anchor name="ogonekUC" x="240" y="0"/>
</glyph>
<glyph name="Y" format="2">
	<unicode hex="0059"/>
	<advance width="422"/>
	<outline>
		<contour>
			<point x="140" y="0" type="line"/>
			<point x="170" y="0" type="line"/>
			<point x="225" y="273" type="line"/>
			<point x="498" y="660" type="line"/>
			<point x="466" y="660" type="line"/>
			<point x="315" y="445" type="line" smooth="yes"/>
			<point x="282" y="398"/>
			<point x="249" y="349"/>
			<point x="216" y="302" type="curve"/>
			<point x="214" y="302" type="line"/>
			<point x="200" y="351"/>
			<point x="188" y="397"/>
			<point x="175" y="445" type="curve" smooth="yes"/>
			<point x="116" y="660" type="line"/>
			<point x="86" y="660" type="line"/>
			<point x="195" y="273" type="line"/>
		</contour>
	</outline>
	<anchor name="aboverightUC" x="500" y="682"/>
	<anchor name="aboveUC" x="290" y="682"/>
	<anchor name="belowLC" x="150" y="-22"/>
</glyph>
<glyph name="underscore" format="2">
	<unicode hex="005F"/>
	<advance width="484"/>
	<outline>
		<contour>
			<point x="-26" y="-112" type="line"/>
			<point x="432" y="-112" type="line"/>
			<point x="438" y="-84" type="line"/>
			<point x="-20" y="-84" type="line"/>
		</contour>
	</outline>
</glyph>
<glyph name="c" format="2">
	<unicode hex="0063"/>
	<advance width="428"/>
	<outline>
		<contour>
			<point x="210" y="-12" type="curve" smooth="yes"/>
			<point x="272" y="-12"/>
			<point x="326" y="18"/>
			<point x="358" y="46" type="curve"/>
			<point x="344" y="64" type="line"/>
			<point x="312" y="38"/>
			<point x="258" y="14"/>
			<point x="212" y="14" type="curve" smooth="yes"/>
			<point x="118" y="14"/>
			<point x="72" y="72"/>
			<point x="72" y="182" type="curve" smooth="yes"/>
			<point x="72" y="334"/>
			<point x="184" y="464"/>
			<point x="296" y="464" type="curve" smooth="yes"/>
			<point x="344" y="464"/>
			<point x="374" y="450"/>
			<point x="400" y="418" type="curve"/>
			<point x="418" y="432" type="line"/>
			<point x="392" y="468"/>
			<point x="354" y="490"/>
			<point x="298" y="490" type="curve" smooth="yes"/>
			<point x="174" y="490"/>
			<point x="44" y="364"/>
			<point x="44" y="176" type="curve" smooth="yes"/>
			<point x="44" y="56"/>
			<point x="108" y="-12"/>
		</contour>
	</outline>
	<anchor name="aboveLC" x="300" y="502"/>
	<anchor name="aboverightLC" x="440" y="502"/>
	<anchor name="baseLC" x="200" y="0"/>
	<anchor name="belowLC" x="200" y="-22"/>
</glyph>
<glyph name="o" format="2">
	<unicode hex="006F"/>
	<advance width="500"/>
	<outline>
		<contour>
			<point x="204" y="-12" type="curve" smooth="yes"/>
			<point x="330" y="-12"/>
			<point x="454" y="124"/>
			<point x="454" y="302" type="curve" smooth="yes"/>
			<point x="454" y="422"/>
			<point x="394" y="490"/>
			<point x="296" y="490" type="curve" smooth="yes"/>
			<point x="170" y="490"/>
			<point x="46" y="354"/>
			<point x="46" y="176" type="curve" smooth="yes"/>
			<point x="46" y="56"/>
			<point x="106" y="-12"/>
		</contour>
		<contour>
			<point x="206" y="14" type="curve" smooth="yes"/>
			<point x="122" y="14"/>
			<point x="74" y="72"/>
			<point x="74" y="182" type="curve" smooth="yes"/>
			<point x="74" y="334"/>
			<point x="186" y="464"/>
			<point x="294" y="464" type="curve" smooth="yes"/>
			<point x="378" y="464"/>
			<point x="426" y="406"/>
			<point x="426" y="296" type="curve" smooth="yes"/>
			<point x="426" y="144"/>
			<point x="314" y="14"/>
		</contour>
	</outline>
	<anchor name="aboveLC" x="310" y="502"/>
	<anchor name="aboverightLC" x="500" y="502"/>
	<anchor name="belowLC" x="190" y="-22"/>
	<anchor name="hornLC" x="390" y="482"/>
	<anchor name="ogonekLC" x="190" y="0"/>
</glyph>
<glyph name="p" format="2">
	<unicode hex="0070"/>
	<advance width="520"/>
	<outline>
		<contour>
			<point x="0" y="-222" type="line"/>
			<point x="28" y="-222" type="line"/>
			<point x="62" y="-42" type="line"/>
			<point x="84" y="68" type="line"/>
			<point x="86" y="68" type="line"/>
			<point x="114" y="22"/>
			<point x="158" y="-12"/>
			<point x="216" y="-12" type="curve" smooth="yes"/>
			<point x="348" y="-12"/>
			<point x="476" y="134"/>
			<point x="476" y="318" type="curve" smooth="yes"/>
			<point x="476" y="429"/>
			<point x="420" y="490"/>
			<point x="336" y="490" type="curve" smooth="yes"/>
			<point x="268" y="490"/>
			<point x="208" y="450"/>
			<point x="156" y="408" type="curve"/>
			<point x="152" y="408" type="line"/>
			<point x="164" y="478" type="line"/>
			<point x="140" y="478" type="line"/>
		</contour>
		<contour>
			<point x="218" y="14" type="curve" smooth="yes"/>
			<point x="170" y="14"/>
			<point x="130" y="38"/>
			<point x="92" y="102" type="curve"/>
			<point x="146" y="370" type="line"/>
			<point x="204" y="424"/>
			<point x="278" y="464"/>
			<point x="334" y="464" type="curve" smooth="yes"/>
			<point x="404" y="464"/>
			<point x="448" y="413"/>
			<point x="448" y="312" type="curve" smooth="yes"/>
			<point x="448" y="164"/>
			<point x="338" y="14"/>
		</contour>
	</outline>
	<anchor name="aboveLC" x="330" y="502"/>
	<anchor name="aboverightLC" x="500" y="502"/>
	<anchor name="belowLC" x="20" y="-222"/>
	<anchor name="center" x="50" y="-140"/>
</glyph>
<glyph name="z" format="2">
	<unicode hex="007A"/>
	<advance width="384"/>
	<outline>
		<contour>
			<point x="-10" y="0" type="line"/>
			<point x="318" y="0" type="line"/>
			<point x="324" y="26" type="line"/>
			<point x="32" y="26" type="line"/>
			<point x="404" y="460" type="line"/>
			<point x="406" y="478" type="line"/>
			<point x="116" y="478" type="line"/>
			<point x="110" y="452" type="line"/>
			<point x="364" y="452" type="line"/>
			<point x="-8" y="18" type="line"/>
		</contour>
	</outline>
	<anchor name="aboveLC" x="260" y="502"/>
	<anchor name="belowLC" x="160" y="-22"/>
	<anchor name="center" x="200" y="240"/>
</glyph>
<glyph name="exclamdown" format="2">
	<unicode hex="00A1"/>
	<advance width="242"/>
	<outline>
		<contour>
			<point x="24" y="-194" type="line"/>
			<point x="52" y="-194" type="line"/>
			<point x="148" y="306" type="line"/>
			<point x="124" y="306" type="line"/>
			<point x="36" y="-130" type="line"/>
		</contour>
		<contour>
			<point x="156" y="414" type="curve" smooth="yes"/>
			<point x="178" y="414"/>
			<point x="198" y="438"/>
			<point x="198" y="460" type="curve" smooth="yes"/>
			<point x="198" y="476"/>
			<point x="188" y="490"/>
			<point x="170" y="490" type="curve" smooth="yes"/>
			<point x="148" y="490"/>
			<point x="130" y="468"/>
			<point x="130" y="446" type="curve" smooth="yes"/>
			<point x="130" y="428"/>
			<point x="138" y="414"/>
		</contour>
	</outline>
</glyph>
<glyph name="section" format="2">
	<unicode hex="00A7"/>
	<advance width="454"/>
	<outline>
		<contour>
			<point x="276" y="142" type="line"/>
			<point x="360" y="172"/>
			<point x="408" y="204"/>
			<point x="408" y="292" type="curve" smooth="yes"/>
			<point x="408" y="440"/>
			<point x="186" y="440"/>
			<point x="186" y="558" type="curve" smooth="yes"/>
			<point x="186" y="618"/>
			<point x="236" y="654"/>
			<point x="286" y="654" type="curve" smooth="yes"/>
			<point x="332" y="654"/>
			<point x="372" y="628"/>
			<point x="402" y="592" type="curve"/>
			<point x="424" y="612" type="line"/>
			<point x="390" y="648"/>
			<point x="344" y="680"/>
			<point x="288" y="680" type="curve" smooth="yes"/>
			<point x="216" y="680"/>
			<point x="158" y="632"/>
			<point x="158" y="552" type="curve" smooth="yes"/>
			<point x="158" y="422"/>
			<point x="380" y="422"/>
			<point x="380" y="286" type="curve" smooth="yes"/>
			<point x="380" y="214"/>
			<point x="340" y="188"/>
			<point x="266" y="164" type="curve"/>
		</contour>
		<contour>
			<point x="174" y="-44" type="curve" smooth="yes"/>
			<point x="254" y="-44"/>
			<point x="316" y="18"/>
			<point x="316" y="92" type="curve" smooth="yes"/>
			<point x="316" y="234"/>
			<point x="90" y="218"/>
			<point x="90" y="352" type="curve" smooth="yes"/>
			<point x="90" y="418"/>
			<point x="134" y="456"/>
			<point x="202" y="480" type="curve"/>
			<point x="194" y="502" type="line"/>
			<point x="118" y="478"/>
			<point x="62" y="428"/>
			<point x="62" y="346" type="curve" smooth="yes"/>
			<point x="62" y="200"/>
			<point x="288" y="216"/>
			<point x="288" y="86" type="curve" smooth="yes"/>
			<point x="288" y="26"/>
			<point x="236" y="-18"/>
			<point x="176" y="-18" type="curve" smooth="yes"/>
			<point x="128" y="-18"/>
			<point x="82" y="6"/>
			<point x="46" y="46" type="curve"/>
			<point x="26" y="24" type="line"/>
			<point x="68" y="-18"/>
			<point x="118" y="-44"/>
		</contour>
	</outline>
</glyph>
<glyph name="germandbls" format="2">
	<unicode hex="00DF"/>
	<advance width="512"/>
	<outline>
		<contour>
			<point x="310" y="-12" type="curve" smooth="yes"/>
			<point x="398" y="-12"/>
			<point x="460" y="52"/>
			<point x="460" y="130" type="curve" smooth="yes"/>
			<point x="460" y="258"/>
			<point x="308" y="266"/>
			<point x="308" y="362" type="curve" smooth="yes"/>
			<point x="308" y="456"/>
			<point x="466" y="482"/>
			<point x="466" y="616" type="curve" smooth="yes"/>
			<point x="466" y="692"/>
			<point x="420" y="734"/>
			<point x="346" y="734" type="curve" smooth="yes"/>
			<point x="246" y="734"/>
			<point x="173" y="644"/>
			<point x="152" y="540" type="curve" smooth="yes"/>
			<point x="44" y="0" type="line"/>
			<point x="72" y="0" type="line"/>
			<point x="178" y="530" type="line" smooth="yes"/>
			<point x="198" y="628"/>
			<point x="262" y="708"/>
			<point x="344" y="708" type="curve" smooth="yes"/>
			<point x="410" y="708"/>
			<point x="438" y="668"/>
			<point x="438" y="616" type="curve" smooth="yes"/>
			<point x="438" y="496"/>
			<point x="280" y="472"/>
			<point x="280" y="356" type="curve" smooth="yes"/>
			<point x="280" y="254"/>
			<point x="432" y="242"/>
			<point x="432" y="124" type="curve" smooth="yes"/>
			<point x="432" y="60"/>
			<point x="376" y="14"/>
			<point x="312" y="14" type="curve" smooth="yes"/>
			<point x="266" y="14"/>
			<point x="228" y="30"/>
			<point x="194" y="60" type="curve"/>
			<point x="178" y="42" type="line"/>
			<point x="214" y="6"/>
			<point x="264" y="-12"/>
		</contour>
	</outline>
</glyph>
<glyph name="dcroat" format="2">
	<unicode hex="0111"/>
	<advance width="522"/>
	<outline>
		<contour>
			<point x="186" y="-12" type="curve" smooth="yes"/>
			<point x="254" y="-12"/>
			<point x="316" y="26"/>
			<point x="366" y="78" type="curve"/>
			<point x="370" y="78" type="line"/>
			<point x="358" y="0" type="line"/>
			<point x="382" y="0" type="line"/>
			<point x="528" y="722" type="line"/>
			<point x="500" y="722" type="line"/>
			<point x="452" y="486" type="line"/>
			<point x="432" y="390" type="line"/>
			<point x="428" y="390" type="line"/>
			<point x="404" y="438"/>
			<point x="362" y="470"/>
			<point x="304" y="470" type="curve" smooth="yes"/>
			<point x="172" y="470"/>
			<point x="46" y="324"/>
			<point x="46" y="160" type="curve" smooth="yes"/>
			<point x="46" y="48"/>
			<point x="102" y="-12"/>
		</contour>
		<contour>
			<point x="188" y="14" type="curve" smooth="yes"/>
			<point x="118" y="14"/>
			<point x="74" y="64"/>
			<point x="74" y="166" type="curve" smooth="yes"/>
			<point x="74" y="296"/>
			<point x="182" y="444"/>
			<point x="302" y="444" type="curve" smooth="yes"/>
			<point x="350" y="444"/>
			<point x="390" y="418"/>
			<point x="426" y="352" type="curve"/>
			<point x="378" y="122" type="line"/>
			<point x="318" y="54"/>
			<point x="254" y="14"/>
		</contour>
		<contour>
			<point x="306" y="584" type="line"/>
			<point x="500" y="584" type="line"/>
			<point x="574" y="588" type="line"/>
			<point x="580" y="610" type="line"/>
			<point x="312" y="610" type="line"/>
		</contour>
	</outline>
	<anchor name="aboveUC" x="350" y="732"/>
	<anchor name="belowLC" x="210" y="-22"/>
</glyph>
<glyph name="dotlessi" format="2">
	<unicode hex="0131"/>
	<advance width="214"/>
	<outline>
		<contour>
			<point x="44" y="0" type="line"/>
			<point x="72" y="0" type="line"/>
			<point x="168" y="478" type="line"/>
			<point x="140" y="478" type="line"/>
		</contour>
	</outline>
	<anchor name="aboveLC" x="160" y="502"/>
	<anchor name="belowLC" x="60" y="-22"/>
	<anchor name="ogonekLC" x="60" y="0"/>
</glyph>
<glyph name="Eng" format="2">
	<unicode hex="014A"/>
	<advance width="584"/>
	<outline>
		<contour>
			<point x="330" y="-12" type="curve" smooth="yes"/>
			<point x="462" y="-12"/>
			<point x="558" y="224"/>
			<point x="558" y="456" type="curve" smooth="yes"/>
			<point x="558" y="609"/>
			<point x="486" y="672"/>
			<point x="388" y="672" type="curve" smooth="yes"/>
			<point x="322" y="672"/>
			<point x="238" y="626"/>
			<point x="184" y="572" type="curve"/>
			<point x="200" y="660" type="line"/>
			<point x="172" y="660" type="line"/>
			<point x="40" y="0" type="line"/>
			<point x="70" y="0" type="line"/>
			<point x="176" y="532" type="line"/>
			<point x="246" y="604"/>
			<point x="328" y="646"/>
			<point x="386" y="646" type="curve" smooth="yes"/>
			<point x="467" y="646"/>
			<point x="528" y="597"/>
			<point x="528" y="450" type="curve" smooth="yes"/>
			<point x="528" y="244"/>
			<point x="438" y="14"/>
			<point x="332" y="14" type="curve" smooth="yes"/>
			<point x="311" y="14"/>
			<point x="290" y="18"/>
			<point x="272" y="28" type="curve"/>
			<point x="260" y="6" type="line"/>
			<point x="278" y="-6"/>
			<point x="306" y="-12"/>
		</contour>
	</outline>
	<anchor name="aboveUC" x="400" y="682"/>
	<anchor name="belowLC" x="240" y="-22"/>
</glyph>
<glyph name="Schwa" format="2">
	<unicode hex="018F"/>
	<advance width="610"/>
	<outline>
		<contour>
			<point x="264" y="-12" type="curve" smooth="yes"/>
			<point x="442" y="-12"/>
			<point x="584" y="162"/>
			<point x="584" y="398" type="curve" smooth="yes"/>
			<point x="584" y="560"/>
			<point x="522" y="672"/>
			<point x="380" y="672" type="curve" smooth="yes"/>
			<point x="302" y="672"/>
			<point x="228" y="634"/>
			<point x="174" y="584" type="curve"/>
			<point x="192" y="564" type="line"/>
			<point x="242" y="612"/>
			<point x="310" y="646"/>
			<point x="378" y="646" type="curve" smooth="yes"/>
			<point x="508" y="646"/>
			<point x="554" y="544"/>
			<point x="554" y="392" type="curve" smooth="yes"/>
			<point x="554" y="178"/>
			<point x="430" y="14"/>
			<point x="266" y="14" type="curve" smooth="yes"/>
			<point x="140" y="14"/>
			<point x="70" y="120"/>
			<point x="94" y="296" type="curve"/>
			<point x="552" y="296" type="line"/>
			<point x="558" y="322" type="line"/>
			<point x="72" y="322" type="line"/>
			<point x="66" y="290"/>
			<point x="62" y="264"/>
			<point x="62" y="226" type="curve" smooth="yes"/>
			<point x="62" y="90"/>
			<point x="134" y="-12"/>
		</contour>
	</outline>
	<anchor name="aboveUC" x="380" y="682"/>
	<anchor name="belowLC" x="270" y="-22"/>
</glyph>
<glyph name="Fhook" format="2">
	<unicode hex="0191"/>
	<advance width="448"/>
	<outline>
		<contour>
			<point x="-62" y="-234" type="curve" smooth="yes"/>
			<point x="-2" y="-234"/>
			<point x="32" y="-188"/>
			<point x="50" y="-98" type="curve" smooth="yes"/>
			<point x="136" y="326" type="line"/>
			<point x="398" y="326" type="line"/>
			<point x="404" y="352" type="line"/>
			<point x="140" y="352" type="line"/>
			<point x="196" y="634" type="line"/>
			<point x="508" y="634" type="line"/>
			<point x="514" y="660" type="line"/>
			<point x="172" y="660" type="line"/>
			<point x="20" y="-104" type="line" smooth="yes"/>
			<point x="8" y="-164"/>
			<point x="-20" y="-208"/>
			<point x="-60" y="-208" type="curve" smooth="yes"/>
			<point x="-84" y="-208"/>
			<point x="-96" y="-206"/>
			<point x="-110" y="-198" type="curve"/>
			<point x="-120" y="-220" type="line"/>
			<point x="-108" y="-228"/>
			<point x="-90" y="-234"/>
		</contour>
	</outline>
	<anchor name="aboveUC" x="350" y="682"/>
	<anchor name="belowLC" x="66" y="-22"/>
</glyph>
<glyph name="Khook" format="2">
	<unicode hex="0198"/>
	<advance width="522"/>
	<outline>
		<contour>
			<point x="40" y="0" type="line"/>
			<point x="70" y="0" type="line"/>
			<point x="120" y="244" type="line"/>
			<point x="288" y="402" type="line"/>
			<point x="432" y="0" type="line"/>
			<point x="464" y="0" type="line"/>
			<point x="312" y="422" type="line"/>
			<point x="564" y="660" type="line"/>
			<point x="526" y="660" type="line"/>
			<point x="130" y="290" type="line"/>
			<point x="128" y="290" type="line"/>
			<point x="202" y="660" type="line"/>
			<point x="172" y="660" type="line"/>
		</contour>
		<component base="Izhitsa" xOffset="14"/>
	</outline>
	<anchor name="aboverightUC" x="560" y="682"/>
	<anchor name="aboveUC" x="360" y="682"/>
	<anchor name="belowLC" x="260" y="-22"/>
</glyph>
<glyph name="khook" format="2">
	<unicode hex="0199"/>
	<advance width="436"/>
	<outline>
		<contour>
			<point x="44" y="0" type="line"/>
			<point x="72" y="0" type="line"/>
			<point x="98" y="126" type="line"/>
			<point x="236" y="266" type="line"/>
			<point x="344" y="0" type="line"/>
			<point x="374" y="0" type="line"/>
			<point x="258" y="286" type="line"/>
			<point x="444" y="478" type="line"/>
			<point x="408" y="478" type="line"/>
			<point x="110" y="176" type="line"/>
			<point x="108" y="176" type="line"/>
			<point x="216" y="722" type="line"/>
			<point x="188" y="722" type="line"/>
		</contour>
		<component base="izhitsa" xOffset="-10"/>
	</outline>
	<anchor name="aboverightLC" x="480" y="502"/>
	<anchor name="aboveUC" x="350" y="732"/>
	<anchor name="belowLC" x="220" y="-22"/>
</glyph>
<glyph name="lambdabar" format="2">
	<unicode hex="019B"/>
	<advance width="408"/>
	<outline>
		<contour>
			<point x="100" y="506" type="line"/>
			<point x="414" y="640" type="line"/>
			<point x="406" y="662" type="line"/>
			<point x="92" y="528" type="line"/>
		</contour>
		<component base="lambda.latin"/>
	</outline>
	<anchor name="aboverightUC" x="360" y="682"/>
	<anchor name="aboveUC" x="260" y="732"/>
	<anchor name="belowLC" x="180" y="-22"/>
</glyph>
<glyph name="Nhookleft" format="2">
	<unicode hex="019D"/>
	<advance width="600"/>
	<outline>
		<contour>
			<point x="-62" y="-234" type="curve" smooth="yes"/>
			<point x="-2" y="-234"/>
			<point x="32" y="-188"/>
			<point x="50" y="-98" type="curve" smooth="yes"/>
			<point x="156" y="436" type="line" smooth="yes"/>
			<point x="168" y="496"/>
			<point x="180" y="556"/>
			<point x="190" y="620" type="curve"/>
			<point x="194" y="620" type="line"/>
			<point x="210" y="574"/>
			<point x="228" y="526"/>
			<point x="244" y="484" type="curve" smooth="yes"/>
			<point x="426" y="0" type="line"/>
			<point x="458" y="0" type="line"/>
			<point x="590" y="660" type="line"/>
			<point x="560" y="660" type="line"/>
			<point x="474" y="230" type="line"/>
			<point x="462" y="170"/>
			<point x="450" y="110"/>
			<point x="440" y="46" type="curve"/>
			<point x="436" y="46" type="line"/>
			<point x="420" y="92"/>
			<point x="402" y="140"/>
			<point x="386" y="182" type="curve" smooth="yes"/>
			<point x="206" y="660" type="line"/>
			<point x="172" y="660" type="line"/>
			<point x="20" y="-104" type="line" smooth="yes"/>
			<point x="8" y="-164"/>
			<point x="-20" y="-208"/>
			<point x="-60" y="-208" type="curve" smooth="yes"/>
			<point x="-84" y="-208"/>
			<point x="-96" y="-206"/>
			<point x="-110" y="-198" type="curve"/>
			<point x="-120" y="-220" type="line"/>
			<point x="-108" y="-228"/>
			<point x="-90" y="-234"/>
		</contour>
	</outline>
	<anchor name="aboveUC" x="400" y="682"/>
	<anchor name="belowLC" x="260" y="-22"/>
</glyph>
<glyph name="Vhook" format="2">
	<unicode hex="01B2"/>
	<advance width="512"/>
	<outline>
		<contour>
			<point x="268" y="-12" type="curve" smooth="yes"/>
			<point x="440" y="-12"/>
			<point x="598" y="227"/>
			<point x="598" y="510" type="curve" smooth="yes"/>
			<point x="598" y="630"/>
			<point x="554" y="672"/>
			<point x="478" y="672" type="curve" smooth="yes"/>
			<point x="450" y="672"/>
			<point x="430" y="668"/>
			<point x="406" y="660" type="curve"/>
			<point x="414" y="636" type="line"/>
			<point x="436" y="644"/>
			<point x="450" y="646"/>
			<point x="474" y="646" type="curve" smooth="yes"/>
			<point x="530" y="646"/>
			<point x="568" y="614"/>
			<point x="568" y="508" type="curve" smooth="yes"/>
			<point x="568" y="247"/>
			<point x="420" y="14"/>
			<point x="272" y="14" type="curve" smooth="yes"/>
			<point x="166" y="14"/>
			<point x="112" y="78"/>
			<point x="112" y="188" type="curve" smooth="yes"/>
			<point x="112" y="212"/>
			<point x="114" y="238"/>
			<point x="122" y="270" type="curve" smooth="yes"/>
			<point x="200" y="660" type="line"/>
			<point x="170" y="660" type="line"/>
			<point x="90" y="262" type="line" smooth="yes"/>
			<point x="84" y="230"/>
			<point x="82" y="206"/>
			<point x="82" y="180" type="curve" smooth="yes"/>
			<point x="82" y="58"/>
			<point x="152" y="-12"/>
		</contour>
	</outline>
	<anchor name="aboveLC" x="370" y="682"/>
	<anchor name="belowLC" x="200" y="-22"/>
</glyph>
<glyph name="yhook" format="2">
	<unicode hex="01B4"/>
	<advance width="408"/>
	<outline>
		<contour>
			<point x="-40" y="-222" type="curve" smooth="yes"/>
			<point x="36" y="-222"/>
			<point x="90" y="-156"/>
			<point x="138" y="-68" type="curve" smooth="yes"/>
			<point x="438" y="478" type="line"/>
			<point x="408" y="478" type="line"/>
			<point x="238" y="166" type="line"/>
			<point x="212" y="120"/>
			<point x="186" y="72"/>
			<point x="162" y="26" type="curve"/>
			<point x="158" y="26" type="line"/>
			<point x="150" y="70"/>
			<point x="144" y="120"/>
			<point x="136" y="166" type="curve" smooth="yes"/>
			<point x="86" y="478" type="line"/>
			<point x="58" y="478" type="line"/>
			<point x="138" y="-10" type="line"/>
			<point x="116" y="-54" type="line" smooth="yes"/>
			<point x="73" y="-140"/>
			<point x="22" y="-196"/>
			<point x="-38" y="-196" type="curve" smooth="yes"/>
			<point x="-52" y="-196"/>
			<point x="-64" y="-194"/>
			<point x="-74" y="-190" type="curve"/>
			<point x="-84" y="-212" type="line"/>
			<point x="-70" y="-220"/>
			<point x="-54" y="-222"/>
		</contour>
		<component base="izhitsa"/>
	</outline>
	<anchor name="aboveLC" x="250" y="502"/>
	<anchor name="aboverightLC" x="440" y="502"/>
	<anchor name="belowLC" x="88" y="-242"/>
</glyph>
<glyph name="wynn" format="2">
	<unicode hex="01BF"/>
	<advance width="508"/>
	<outline>
		<contour>
			<point x="0" y="-222" type="line"/>
			<point x="28" y="-222" type="line"/>
			<point x="50" y="-102" type="line"/>
			<point x="68" y="-12" type="line"/>
			<point x="300" y="52"/>
			<point x="474" y="214"/>
			<point x="474" y="374" type="curve" smooth="yes"/>
			<point x="474" y="446"/>
			<point x="430" y="490"/>
			<point x="350" y="490" type="curve" smooth="yes"/>
			<point x="284" y="490"/>
			<point x="224" y="464"/>
			<point x="152" y="392" type="curve"/>
			<point x="150" y="392" type="line"/>
			<point x="164" y="478" type="line"/>
			<point x="140" y="478" type="line"/>
		</contour>
		<contour>
			<point x="74" y="16" type="curve"/>
			<point x="142" y="352" type="line"/>
			<point x="234" y="448"/>
			<point x="290" y="464"/>
			<point x="348" y="464" type="curve" smooth="yes"/>
			<point x="412" y="464"/>
			<point x="446" y="422"/>
			<point x="446" y="366" type="curve" smooth="yes"/>
			<point x="446" y="228"/>
			<point x="286" y="76"/>
		</contour>
	</outline>
	<anchor name="aboveLC" x="320" y="502"/>
	<anchor name="belowLC" x="20" y="-222"/>
</glyph>
<glyph name="Oogonek" format="2">
	<unicode hex="01EA"/>
	<advance width="612"/>
	<outline>
		<contour>
			<point x="222" y="-214" type="curve" smooth="yes"/>
			<point x="248" y="-214"/>
			<point x="270" y="-204"/>
			<point x="294" y="-182" type="curve"/>
			<point x="282" y="-166" type="line"/>
			<point x="260" y="-182"/>
			<point x="246" y="-188"/>
			<point x="226" y="-188" type="curve" smooth="yes"/>
			<point x="198" y="-188"/>
			<point x="178" y="-170"/>
			<point x="178" y="-142" type="curve" smooth="yes"/>
			<point x="178" y="-98"/>
			<point x="222" y="-22"/>
			<point x="306" y="-10" type="curve" smooth="yes"/>
			<point x="490" y="16"/>
			<point x="584" y="238"/>
			<point x="584" y="398" type="curve" smooth="yes"/>
			<point x="584" y="558"/>
			<point x="516" y="672"/>
			<point x="372" y="672" type="curve" smooth="yes"/>
			<point x="174" y="672"/>
			<point x="62" y="438"/>
			<point x="62" y="262" type="curve" smooth="yes"/>
			<point x="62" y="102"/>
			<point x="130" y="-12"/>
			<point x="274" y="-12" type="curve"/>
			<point x="256" y="0" type="line"/>
			<point x="192" y="-34"/>
			<point x="148" y="-94"/>
			<point x="148" y="-148" type="curve" smooth="yes"/>
			<point x="148" y="-192"/>
			<point x="180" y="-214"/>
		</contour>
		<contour>
			<point x="276" y="14" type="curve" smooth="yes"/>
			<point x="146" y="14"/>
			<point x="92" y="118"/>
			<point x="92" y="266" type="curve" smooth="yes"/>
			<point x="92" y="422"/>
			<point x="190" y="646"/>
			<point x="370" y="646" type="curve" smooth="yes"/>
			<point x="500" y="646"/>
			<point x="554" y="542"/>
			<point x="554" y="394" type="curve" smooth="yes"/>
			<point x="554" y="238"/>
			<point x="456" y="14"/>
		</contour>
	</outline>
	<anchor name="aboveUC" x="390" y="682"/>
	<anchor name="belowLC" x="220" y="-222"/>
</glyph>
<glyph name="yogh" format="2">
	<unicode hex="021D"/>
	<advance width="398"/>
	<outline>
		<contour>
			<point x="-8" y="-234" type="line"/>
			<point x="236" y="-130"/>
			<point x="330" y="-28"/>
			<point x="330" y="82" type="curve" smooth="yes"/>
			<point x="330" y="154"/>
			<point x="284" y="196"/>
			<point x="188" y="188" type="curve"/>
			<point x="306" y="258"/>
			<point x="358" y="316"/>
			<point x="358" y="396" type="curve" smooth="yes"/>
			<point x="358" y="454"/>
			<point x="318" y="490"/>
			<point x="252" y="490" type="curve" smooth="yes"/>
			<point x="178" y="490"/>
			<point x="120" y="452"/>
			<point x="48" y="386" type="curve"/>
			<point x="64" y="370" type="line"/>
			<point x="134" y="434"/>
			<point x="188" y="464"/>
			<point x="250" y="464" type="curve" smooth="yes"/>
			<point x="299" y="464"/>
			<point x="328" y="436"/>
			<point x="328" y="390" type="curve" smooth="yes"/>
			<point x="328" y="326"/>
			<point x="290" y="264"/>
			<point x="86" y="158" type="curve"/>
			<point x="96" y="136" type="line"/>
			<point x="138" y="158"/>
			<point x="172" y="164"/>
			<point x="202" y="164" type="curve" smooth="yes"/>
			<point x="263" y="164"/>
			<point x="300" y="132"/>
			<point x="300" y="76" type="curve" smooth="yes"/>
			<point x="300" y="-15"/>
			<point x="216" y="-110"/>
			<point x="-16" y="-210" type="curve"/>
		</contour>
	</outline>
	<anchor name="aboveLC" x="230" y="502"/>
	<anchor name="belowLC" x="130" y="-222"/>
</glyph>
<glyph name="cstroke" format="2">
	<unicode hex="023C"/>
	<advance width="428"/>
	<outline>
		<contour>
			<point x="114" y="-40" type="line"/>
			<point x="402" y="506" type="line"/>
			<point x="380" y="518" type="line"/>
			<point x="92" y="-28" type="line"/>
		</contour>
		<component base="c"/>
	</outline>
	<anchor name="aboveLC" x="300" y="502"/>
	<anchor name="belowLC" x="200" y="-22"/>
</glyph>
<glyph name="eopenreversedrhotic" format="2">
	<unicode hex="025D"/>
	<advance width="532"/>
	<outline>
		<contour>
			<point x="156" y="-12" type="curve" smooth="yes"/>
			<point x="272" y="-12"/>
			<point x="362" y="57"/>
			<point x="362" y="152" type="curve" smooth="yes"/>
			<point x="362" y="212"/>
			<point x="314" y="242"/>
			<point x="274" y="254" type="curve"/>
			<point x="274" y="258" type="line"/>
			<point x="440" y="328" type="line"/>
			<point x="432" y="302"/>
			<point x="430" y="280"/>
			<point x="430" y="258" type="curve" smooth="yes"/>
			<point x="430" y="212"/>
			<point x="456" y="194"/>
			<point x="486" y="194" type="curve" smooth="yes"/>
			<point x="514" y="194"/>
			<point x="532" y="206"/>
			<point x="546" y="216" type="curve"/>
			<point x="534" y="234" type="line"/>
			<point x="522" y="226"/>
			<point x="510" y="220"/>
			<point x="494" y="220" type="curve" smooth="yes"/>
			<point x="470" y="220"/>
			<point x="456" y="228"/>
			<point x="456" y="264" type="curve" smooth="yes"/>
			<point x="456" y="286"/>
			<point x="460" y="316"/>
			<point x="474" y="362" type="curve"/>
			<point x="470" y="366" type="line"/>
			<point x="328" y="306" type="line"/>
			<point x="338" y="296" type="line"/>
			<point x="368" y="328"/>
			<point x="380" y="358"/>
			<point x="380" y="392" type="curve" smooth="yes"/>
			<point x="380" y="456"/>
			<point x="322" y="490"/>
			<point x="253" y="490" type="curve" smooth="yes"/>
			<point x="194" y="490"/>
			<point x="142" y="470"/>
			<point x="98" y="439" type="curve"/>
			<point x="112" y="416" type="line"/>
			<point x="158" y="448"/>
			<point x="202" y="464"/>
			<point x="250" y="464" type="curve" smooth="yes"/>
			<point x="304" y="464"/>
			<point x="352" y="440"/>
			<point x="352" y="386" type="curve" smooth="yes"/>
			<point x="352" y="324"/>
			<point x="294" y="268"/>
			<point x="180" y="268" type="curve" smooth="yes"/>
			<point x="136" y="268" type="line"/>
			<point x="130" y="242" type="line"/>
			<point x="188" y="242" type="line" smooth="yes"/>
			<point x="282" y="242"/>
			<point x="334" y="208"/>
			<point x="334" y="146" type="curve" smooth="yes"/>
			<point x="334" y="70"/>
			<point x="256" y="14"/>
			<point x="158" y="14" type="curve" smooth="yes"/>
			<point x="98" y="14"/>
			<point x="58" y="28"/>
			<point x="18" y="66" type="curve"/>
			<point x="0" y="46" type="line"/>
			<point x="43" y="6"/>
			<point x="88" y="-12"/>
		</contour>
	</outline>
	<anchor name="aboveLC" x="260" y="502"/>
	<anchor name="belowLC" x="160" y="-22"/>
</glyph>
<glyph name="gsmall" format="2">
	<unicode hex="0262"/>
	<advance width="462"/>
	<outline>
		<contour>
			<point x="210" y="-12" type="curve" smooth="yes"/>
			<point x="272" y="-12"/>
			<point x="327" y="14"/>
			<point x="364" y="46" type="curve"/>
			<point x="402" y="234" type="line"/>
			<point x="244" y="234" type="line"/>
			<point x="238" y="208" type="line"/>
			<point x="370" y="208" type="line"/>
			<point x="338" y="58" type="line"/>
			<point x="309" y="34"/>
			<point x="261" y="14"/>
			<point x="212" y="14" type="curve" smooth="yes"/>
			<point x="118" y="14"/>
			<point x="72" y="72"/>
			<point x="72" y="180" type="curve" smooth="yes"/>
			<point x="72" y="334"/>
			<point x="184" y="464"/>
			<point x="306" y="464" type="curve" smooth="yes"/>
			<point x="362" y="464"/>
			<point x="394" y="448"/>
			<point x="420" y="418" type="curve"/>
			<point x="438" y="432" type="line"/>
			<point x="412" y="466"/>
			<point x="372" y="490"/>
			<point x="308" y="490" type="curve" smooth="yes"/>
			<point x="174" y="490"/>
			<point x="44" y="364"/>
			<point x="44" y="174" type="curve" smooth="yes"/>
			<point x="44" y="56"/>
			<point x="108" y="-12"/>
		</contour>
	</outline>
	<anchor name="aboveLC" x="300" y="502"/>
	<anchor name="belowLC" x="210" y="-22"/>
</glyph>
<glyph name="hturned" format="2">
	<unicode hex="0265"/>
	<advance width="514"/>
	<outline>
		<contour>
			<point x="300" y="-222" type="line"/>
			<point x="328" y="-222" type="line"/>
			<point x="468" y="478" type="line"/>
			<point x="440" y="478" type="line"/>
			<point x="368" y="120" type="line"/>
			<point x="292" y="46"/>
			<point x="232" y="14"/>
			<point x="188" y="14" type="curve" smooth="yes"/>
			<point x="124" y="14"/>
			<point x="98" y="46"/>
			<point x="98" y="108" type="curve" smooth="yes"/>
			<point x="98" y="128"/>
			<point x="100" y="142"/>
			<point x="106" y="172" type="curve" smooth="yes"/>
			<point x="168" y="478" type="line"/>
			<point x="140" y="478" type="line"/>
			<point x="78" y="168" type="line" smooth="yes"/>
			<point x="72" y="140"/>
			<point x="70" y="128"/>
			<point x="70" y="104" type="curve" smooth="yes"/>
			<point x="70" y="36"/>
			<point x="102" y="-12"/>
			<point x="184" y="-12" type="curve" smooth="yes"/>
			<point x="242" y="-12"/>
			<point x="296" y="26"/>
			<point x="360" y="80" type="curve"/>
			<point x="364" y="80" type="line"/>
			<point x="352" y="34" type="line"/>
		</contour>
	</outline>
	<anchor name="aboveLC" x="310" y="502"/>
	<anchor name="belowLC" x="170" y="-222"/>
</glyph>
<glyph name="obar" format="2">
	<unicode hex="0275"/>
	<advance width="500"/>
	<outline>
		<contour>
			<point x="204" y="-12" type="curve" smooth="yes"/>
			<point x="330" y="-12"/>
			<point x="454" y="124"/>
			<point x="454" y="302" type="curve" smooth="yes"/>
			<point x="454" y="422"/>
			<point x="394" y="490"/>
			<point x="296" y="490" type="curve" smooth="yes"/>
			<point x="170" y="490"/>
			<point x="46" y="354"/>
			<point x="46" y="176" type="curve" smooth="yes"/>
			<point x="46" y="56"/>
			<point x="106" y="-12"/>
		</contour>
		<contour>
			<point x="206" y="14" type="curve" smooth="yes"/>
			<point x="122" y="14"/>
			<point x="74" y="72"/>
			<point x="74" y="182" type="curve" smooth="yes"/>
			<point x="74" y="334"/>
			<point x="186" y="464"/>
			<point x="294" y="464" type="curve" smooth="yes"/>
			<point x="378" y="464"/>
			<point x="426" y="406"/>
			<point x="426" y="296" type="curve" smooth="yes"/>
			<point x="426" y="144"/>
			<point x="314" y="14"/>
		</contour>
		<contour>
			<point x="66" y="242" type="line"/>
			<point x="438" y="242" type="line"/>
			<point x="443" y="268" type="line"/>
			<point x="71" y="268" type="line"/>
		</contour>
	</outline>
	<anchor name="aboveLC" x="310" y="502"/>
	<anchor name="belowLC" x="190" y="-22"/>
	<anchor name="ogonekLC" x="190" y="0"/>
</glyph>
<glyph name="apicaldental" format="2">
	<unicode hex="027F"/>
	<advance width="224"/>
	<outline>
		<contour>
			<point x="20" y="-222" type="line"/>
			<point x="48" y="-222" type="line"/>
			<point x="164" y="360" type="line" smooth="yes"/>
			<point x="168" y="382"/>
			<point x="170" y="400"/>
			<point x="170" y="418" type="curve" smooth="yes"/>
			<point x="170" y="470"/>
			<point x="144" y="490"/>
			<point x="104" y="490" type="curve" smooth="yes"/>
			<point x="88" y="490"/>
			<point x="68" y="484"/>
			<point x="56" y="476" type="curve"/>
			<point x="64" y="456" type="line"/>
			<point x="76" y="462"/>
			<point x="88" y="464"/>
			<point x="102" y="464" type="curve" smooth="yes"/>
			<point x="132" y="464"/>
			<point x="142" y="448"/>
			<point x="142" y="414" type="curve" smooth="yes"/>
			<point x="142" y="394"/>
			<point x="140" y="382"/>
			<point x="136" y="360" type="curve" smooth="yes"/>
		</contour>
	</outline>
	<anchor name="aboveLC" x="140" y="502"/>
	<anchor name="belowLC" x="40" y="-222"/>
</glyph>
<glyph name="dotlessjstrokehook" format="2">
	<unicode hex="0284"/>
	<advance width="230"/>
	<outline>
		<contour>
			<point x="20" y="242" type="line"/>
			<point x="232" y="242" type="line"/>
			<point x="238" y="266" type="line"/>
			<point x="118" y="266" type="line"/>
			<point x="26" y="262" type="line"/>
		</contour>
		<component base="esh" xOffset="20"/>
	</outline>
	<anchor name="aboveUC" x="280" y="732"/>
	<anchor name="belowLC" x="-40" y="-222"/>
</glyph>
<glyph name="tturned" format="2">
	<unicode hex="0287"/>
	<advance width="290"/>
	<outline>
		<contour>
			<point x="78" y="-158" type="line"/>
			<point x="102" y="-158" type="line"/>
			<point x="138" y="0" type="line"/>
			<point x="216" y="4" type="line"/>
			<point x="220" y="26" type="line"/>
			<point x="144" y="26" type="line"/>
			<point x="212" y="350" type="line" smooth="yes"/>
			<point x="215" y="366"/>
			<point x="216" y="378"/>
			<point x="216" y="396" type="curve" smooth="yes"/>
			<point x="216" y="444"/>
			<point x="192" y="486"/>
			<point x="120" y="486" type="curve" smooth="yes"/>
			<point x="92" y="486"/>
			<point x="66" y="474"/>
			<point x="48" y="464" type="curve"/>
			<point x="58" y="442" type="line"/>
			<point x="74" y="450"/>
			<point x="94" y="460"/>
			<point x="118" y="460" type="curve" smooth="yes"/>
			<point x="172" y="460"/>
			<point x="188" y="436"/>
			<point x="188" y="390" type="curve" smooth="yes"/>
			<point x="188" y="376"/>
			<point x="186" y="364"/>
			<point x="184" y="352" type="curve" smooth="yes"/>
			<point x="116" y="26" type="line"/>
			<point x="-16" y="26" type="line"/>
			<point x="-22" y="0" type="line"/>
			<point x="110" y="0" type="line"/>
		</contour>
	</outline>
	<anchor name="aboveLC" x="150" y="502"/>
	<anchor name="belowLC" x="90" y="-162"/>
</glyph>
<glyph name="ubar" format="2">
	<unicode hex="0289"/>
	<advance width="544"/>
	<outline>
		<contour>
			<point x="18" y="258" type="line"/>
			<point x="530" y="258" type="line"/>
			<point x="536" y="284" type="line"/>
			<point x="116" y="284" type="line"/>
			<point x="22" y="280" type="line"/>
		</contour>
		<component base="u" xOffset="20"/>
	</outline>
	<anchor name="aboveLC" x="310" y="502"/>
	<anchor name="baseLC" x="190" y="0"/>
	<anchor name="belowLC" x="220" y="-22"/>
	<anchor name="ogonekLC" x="330" y="0"/>
</glyph>
<glyph name="kturned" format="2">
	<unicode hex="029E"/>
	<advance width="436"/>
	<outline>
		<contour>
			<point x="276" y="-222" type="line"/>
			<point x="304" y="-222" type="line"/>
			<point x="444" y="478" type="line"/>
			<point x="416" y="478" type="line"/>
			<point x="388" y="342" type="line"/>
			<point x="20" y="0" type="line"/>
			<point x="58" y="0" type="line"/>
			<point x="378" y="302" type="line"/>
			<point x="380" y="302" type="line"/>
		</contour>
		<contour>
			<point x="252" y="214" type="line"/>
			<point x="274" y="234" type="line"/>
			<point x="172" y="478" type="line"/>
			<point x="144" y="478" type="line"/>
		</contour>
	</outline>
	<anchor name="aboveLC" x="300" y="502"/>
	<anchor name="belowLC" x="290" y="-222"/>
</glyph>
<glyph name="glottalstopstrokereversed" format="2">
	<unicode hex="02A2"/>
	<advance width="412"/>
	<outline>
		<contour>
			<point x="70" y="154" type="line"/>
			<point x="346" y="154" type="line"/>
			<point x="352" y="180" type="line"/>
			<point x="150" y="180" type="line"/>
			<point x="74" y="176" type="line"/>
		</contour>
		<component base="glottalstopreversed" xOffset="10"/>
	</outline>
	<anchor name="aboveUC" x="310" y="732"/>
	<anchor name="belowLC" x="180" y="-22"/>
</glyph>
<glyph name="ts" format="2">
	<unicode hex="02A6"/>
	<advance width="574"/>
	<outline>
		<contour>
			<point x="274" y="-12" type="curve" smooth="yes"/>
			<point x="468" y="-12"/>
			<point x="520" y="42"/>
			<point x="520" y="128" type="curve" smooth="yes"/>
			<point x="520" y="246"/>
			<point x="308" y="272"/>
			<point x="308" y="374" type="curve" smooth="yes"/>
			<point x="308" y="423"/>
			<point x="350" y="464"/>
			<point x="406" y="464" type="curve" smooth="yes"/>
			<point x="458" y="464"/>
			<point x="496" y="444"/>
			<point x="524" y="414" type="curve"/>
			<point x="542" y="430" type="line"/>
			<point x="506" y="470"/>
			<point x="462" y="490"/>
			<point x="408" y="490" type="curve" smooth="yes"/>
			<point x="339" y="490"/>
			<point x="280" y="442"/>
			<point x="280" y="368" type="curve" smooth="yes"/>
			<point x="280" y="252"/>
			<point x="492" y="226"/>
			<point x="492" y="122" type="curve" smooth="yes"/>
			<point x="492" y="60"/>
			<point x="448" y="14"/>
			<point x="276" y="14" type="curve" smooth="yes"/>
			<point x="146" y="14"/>
			<point x="110" y="52"/>
			<point x="110" y="124" type="curve" smooth="yes"/>
			<point x="110" y="138"/>
			<point x="112" y="150"/>
			<point x="114" y="162" type="curve" smooth="yes"/>
			<point x="174" y="452" type="line"/>
			<point x="356" y="452" type="line"/>
			<point x="362" y="478" type="line"/>
			<point x="180" y="478" type="line"/>
			<point x="212" y="636" type="line"/>
			<point x="188" y="636" type="line"/>
			<point x="152" y="478" type="line"/>
			<point x="74" y="474" type="line"/>
			<point x="70" y="452" type="line"/>
			<point x="146" y="452" type="line"/>
			<point x="86" y="164" type="line" smooth="yes"/>
			<point x="83" y="148"/>
			<point x="82" y="136"/>
			<point x="82" y="118" type="curve" smooth="yes"/>
			<point x="82" y="49"/>
			<point x="120" y="-12"/>
		</contour>
	</outline>
	<anchor name="aboveLC" x="330" y="632"/>
	<anchor name="belowLC" x="300" y="-22"/>
</glyph>
<glyph name="h.sups" format="2">
	<unicode hex="02B0"/>
	<advance width="340"/>
	<outline>
		<contour>
			<point x="94" y="410" type="line"/>
			<point x="120" y="410" type="line"/>
			<point x="166" y="640" type="line"/>
			<point x="214" y="688"/>
			<point x="252" y="710"/>
			<point x="288" y="710" type="curve" smooth="yes"/>
			<point x="321" y="710"/>
			<point x="338" y="690"/>
			<point x="338" y="650" type="curve" smooth="yes"/>
			<point x="338" y="638"/>
			<point x="336" y="628"/>
			<point x="332" y="610" type="curve" smooth="yes"/>
			<point x="292" y="410" type="line"/>
			<point x="318" y="410" type="line"/>
			<point x="358" y="614" type="line" smooth="yes"/>
			<point x="361" y="627"/>
			<point x="364" y="641"/>
			<point x="364" y="656" type="curve" smooth="yes"/>
			<point x="364" y="704"/>
			<point x="346" y="734"/>
			<point x="290" y="734" type="curve" smooth="yes"/>
			<point x="250" y="734"/>
			<point x="214" y="710"/>
			<point x="176" y="678" type="curve"/>
			<point x="172" y="678" type="line"/>
			<point x="188" y="752" type="line"/>
			<point x="214" y="884" type="line"/>
			<point x="188" y="884" type="line"/>
		</contour>
	</outline>
</glyph>
<glyph name="w.sups" format="2">
	<unicode hex="02B7"/>
	<advance width="458"/>
	<outline>
		<contour>
			<point x="142" y="410" type="line"/>
			<point x="178" y="410" type="line"/>
			<point x="272" y="604" type="line"/>
			<point x="314" y="696" type="line"/>
			<point x="316" y="696" type="line"/>
			<point x="322" y="606" type="line"/>
			<point x="342" y="410" type="line"/>
			<point x="380" y="410" type="line"/>
			<point x="534" y="726" type="line"/>
			<point x="508" y="726" type="line"/>
			<point x="410" y="522" type="line"/>
			<point x="368" y="434" type="line"/>
			<point x="364" y="434" type="line"/>
			<point x="354" y="522" type="line"/>
			<point x="336" y="726" type="line"/>
			<point x="304" y="726" type="line"/>
			<point x="206" y="522" type="line"/>
			<point x="166" y="434" type="line"/>
			<point x="162" y="434" type="line"/>
			<point x="154" y="522" type="line"/>
			<point x="134" y="726" type="line"/>
			<point x="108" y="726" type="line"/>
		</contour>
	</outline>
	<anchor name="belowLC" x="200" y="-22"/>
</glyph>
<glyph name="y.sups" format="2">
	<unicode hex="02B8"/>
	<advance width="282"/>
	<outline>
		<contour>
			<point x="48" y="258" type="curve" smooth="yes"/>
			<point x="116" y="258"/>
			<point x="150" y="324"/>
			<point x="178" y="376" type="curve" smooth="yes"/>
			<point x="368" y="726" type="line"/>
			<point x="340" y="726" type="line"/>
			<point x="232" y="528" type="line"/>
			<point x="186" y="438" type="line"/>
			<point x="182" y="438" type="line"/>
			<point x="166" y="528" type="line"/>
			<point x="128" y="726" type="line"/>
			<point x="102" y="726" type="line"/>
			<point x="165" y="406" type="line"/>
			<point x="154" y="382" type="line"/>
			<point x="126" y="332"/>
			<point x="94" y="282"/>
			<point x="50" y="282" type="curve" smooth="yes"/>
			<point x="34" y="282"/>
			<point x="30" y="286"/>
			<point x="22" y="290" type="curve"/>
			<point x="10" y="270" type="line"/>
			<point x="24" y="262"/>
			<point x="32" y="258"/>
		</contour>
	</outline>
</glyph>
<glyph name="apostrophemod" format="2">
	<unicode hex="02BC"/>
	<advance width="210"/>
	<outline>
		<contour>
			<point x="105" y="488" type="line"/>
			<point x="190" y="516"/>
			<point x="238" y="585"/>
			<point x="238" y="658" type="curve" smooth="yes"/>
			<point x="238" y="708"/>
			<point x="206" y="734"/>
			<point x="176" y="734" type="curve" smooth="yes"/>
			<point x="151" y="734"/>
			<point x="130" y="718"/>
			<point x="130" y="694" type="curve" smooth="yes"/>
			<point x="130" y="670"/>
			<point x="147" y="662"/>
			<point x="164" y="662" type="curve" smooth="yes"/>
			<point x="177" y="662"/>
			<point x="188" y="668"/>
			<point x="194" y="680" type="curve"/>
			<point x="192" y="680" type="line"/>
			<point x="200" y="670"/>
			<point x="204" y="660"/>
			<point x="204" y="646" type="curve" smooth="yes"/>
			<point x="204" y="592"/>
			<point x="170" y="540"/>
			<point x="96" y="510" type="curve"/>
		</contour>
	</outline>
</glyph>
<glyph name="colontriangularmod" format="2">
	<unicode hex="02D0"/>
	<advance width="202"/>
	<outline>
		<contour>
			<point x="8" y="0" type="line"/>
			<point x="104" y="0" type="line"/>
			<point x="81" y="102" type="line"/>
			<point x="73" y="102" type="line"/>
		</contour>
		<contour>
			<point x="125" y="378" type="line"/>
			<point x="133" y="378" type="line"/>
			<point x="198" y="478" type="line"/>
			<point x="102" y="478" type="line"/>
		</contour>
	</outline>
</glyph>
<glyph name="downtackmod" format="2">
	<unicode hex="02D5"/>
	<advance width="346"/>
	<outline>
		<contour>
			<point x="154" y="110" type="line"/>
			<point x="184" y="110" type="line"/>
			<point x="184" y="398" type="line"/>
			<point x="316" y="398" type="line"/>
			<point x="316" y="426" type="line"/>
			<point x="24" y="426" type="line"/>
			<point x="24" y="398" type="line"/>
			<point x="154" y="398" type="line"/>
		</contour>
	</outline>
</glyph>
<glyph name="circumflexcmb" format="2">
	<unicode hex="0302"/>
	<outline>
		<contour>
			<point x="-30" y="570" type="line"/>
			<point x="0" y="570" type="line"/>
			<point x="134" y="690" type="line"/>
			<point x="138" y="690" type="line"/>
			<point x="224" y="570" type="line"/>
			<point x="250" y="570" type="line"/>
			<point x="150" y="724" type="line"/>
			<point x="130" y="724" type="line"/>
		</contour>
	</outline>
	<anchor name="_aboveLC" x="100" y="502"/>
	<anchor name="aboveLC" x="140" y="712"/>
</glyph>
<glyph name="tildecmb" format="2">
	<unicode hex="0303"/>
	<outline>
		<contour>
			<point x="198" y="580" type="curve" smooth="yes"/>
			<point x="259" y="580"/>
			<point x="286" y="646"/>
			<point x="300" y="702" type="curve"/>
			<point x="274" y="704" type="line"/>
			<point x="262" y="651"/>
			<point x="240" y="604"/>
			<point x="202" y="604" type="curve" smooth="yes"/>
			<point x="143" y="604"/>
			<point x="141" y="706"/>
			<point x="70" y="706" type="curve" smooth="yes"/>
			<point x="9" y="706"/>
			<point x="-18" y="642"/>
			<point x="-32" y="584" type="curve"/>
			<point x="-6" y="582" type="line"/>
			<point x="6" y="637"/>
			<point x="28" y="682"/>
			<point x="66" y="682" type="curve" smooth="yes"/>
			<point x="125" y="682"/>
			<point x="127" y="580"/>
		</contour>
	</outline>
	<anchor name="_aboveLC" x="100" y="502"/>
</glyph>
<glyph name="brevecmb" format="2">
	<unicode hex="0306"/>
	<outline>
		<contour>
			<point x="110" y="570" type="curve" smooth="yes"/>
			<point x="212" y="570"/>
			<point x="266" y="654"/>
			<point x="284" y="716" type="curve"/>
			<point x="258" y="720" type="line"/>
			<point x="240" y="662"/>
			<point x="190" y="596"/>
			<point x="116" y="596" type="curve" smooth="yes"/>
			<point x="38" y="596"/>
			<point x="18" y="658"/>
			<point x="18" y="718" type="curve"/>
			<point x="-8" y="716" type="line"/>
			<point x="-8" y="650"/>
			<point x="12" y="570"/>
		</contour>
	</outline>
	<anchor name="_aboveLC" x="100" y="502"/>
</glyph>
<glyph name="candrabinducmb" format="2">
	<unicode hex="0310"/>
	<outline>
		<contour>
			<point x="110" y="570" type="curve" smooth="yes"/>
			<point x="212" y="570"/>
			<point x="266" y="654"/>
			<point x="284" y="716" type="curve"/>
			<point x="258" y="720" type="line"/>
			<point x="238" y="662"/>
			<point x="190" y="596"/>
			<point x="116" y="596" type="curve" smooth="yes"/>
			<point x="41" y="596"/>
			<point x="14" y="662"/>
			<point x="18" y="720" type="curve"/>
			<point x="-8" y="716" type="line"/>
			<point x="-10" y="654"/>
			<point x="12" y="570"/>
		</contour>
		<contour>
			<point x="130" y="720" type="curve" smooth="yes"/>
			<point x="148" y="720"/>
			<point x="166" y="736"/>
			<point x="166" y="758" type="curve" smooth="yes"/>
			<point x="166" y="776"/>
			<point x="154" y="788"/>
			<point x="138" y="788" type="curve" smooth="yes"/>
			<point x="120" y="788"/>
			<point x="102" y="772"/>
			<point x="102" y="748" type="curve" smooth="yes"/>
			<point x="102" y="732"/>
			<point x="114" y="720"/>
		</contour>
	</outline>
	<anchor name="_aboveLC" x="100" y="502"/>
</glyph>
<glyph name="commaabovecmb" format="2">
	<unicode hex="0313"/>
	<outline>
		<contour>
			<point x="82" y="556" type="line"/>
			<point x="140" y="578"/>
			<point x="170" y="628"/>
			<point x="170" y="670" type="curve" smooth="yes"/>
			<point x="170" y="700"/>
			<point x="152" y="718"/>
			<point x="126" y="718" type="curve" smooth="yes"/>
			<point x="106" y="718"/>
			<point x="88" y="702"/>
			<point x="88" y="684" type="curve" smooth="yes"/>
			<point x="88" y="666"/>
			<point x="102" y="656"/>
			<point x="119" y="656" type="curve" smooth="yes"/>
			<point x="128" y="656"/>
			<point x="136" y="658"/>
			<point x="142" y="662" type="curve"/>
			<point x="138" y="626"/>
			<point x="118" y="596"/>
			<point x="74" y="578" type="curve"/>
		</contour>
	</outline>
	<anchor name="_aboveLC" x="100" y="504"/>
	<guideline x="251" y="556" angle="0" identifier="nUaiMmYUPG"/>
</glyph>
<glyph name="verticallinebelowcmb" format="2">
	<unicode hex="0329"/>
	<outline>
		<contour>
			<point x="-67" y="-264" type="line"/>
			<point x="-35" y="-264" type="line"/>
			<point x="-5" y="-76" type="line"/>
			<point x="-25" y="-76" type="line"/>
		</contour>
	</outline>
	<anchor name="_belowLC" x="0" y="-22"/>
</glyph>
<glyph name="delta" format="2">
	<unicode hex="03B4"/>
	<advance width="492"/>
	<outline>
		<contour>
			<point x="212" y="-12" type="curve" smooth="yes"/>
			<point x="352" y="-12"/>
			<point x="446" y="126"/>
			<point x="446" y="282" type="curve" smooth="yes"/>
			<point x="446" y="400"/>
			<point x="390" y="442"/>
			<point x="332" y="488" type="curve" smooth="yes"/>
			<point x="266" y="540"/>
			<point x="216" y="586"/>
			<point x="216" y="640" type="curve" smooth="yes"/>
			<point x="216" y="682"/>
			<point x="244" y="708"/>
			<point x="308" y="708" type="curve" smooth="yes"/>
			<point x="360" y="708"/>
			<point x="428" y="692"/>
			<point x="512" y="634" type="curve"/>
			<point x="526" y="654" type="line"/>
			<point x="450" y="710"/>
			<point x="376" y="734"/>
			<point x="310" y="734" type="curve" smooth="yes"/>
			<point x="220" y="734"/>
			<point x="188" y="690"/>
			<point x="188" y="638" type="curve" smooth="yes"/>
			<point x="188" y="578"/>
			<point x="248" y="520"/>
			<point x="312" y="470" type="curve" smooth="yes"/>
			<point x="372" y="423"/>
			<point x="418" y="388"/>
			<point x="418" y="275" type="curve" smooth="yes"/>
			<point x="418" y="144"/>
			<point x="336" y="14"/>
			<point x="214" y="14" type="curve" smooth="yes"/>
			<point x="132" y="14"/>
			<point x="76" y="78"/>
			<point x="76" y="182" type="curve" smooth="yes"/>
			<point x="76" y="304"/>
			<point x="168" y="454"/>
			<point x="333" y="456" type="curve"/>
			<point x="328" y="478" type="line"/>
			<point x="152" y="476"/>
			<point x="48" y="322"/>
			<point x="48" y="176" type="curve" smooth="yes"/>
			<point x="48" y="56"/>
			<point x="122" y="-12"/>
		</contour>
	</outline>
	<anchor name="aboveUC" x="360" y="732"/>
	<anchor name="belowLC" x="200" y="-22"/>
</glyph>
<glyph name="sigma.end" format="2">
	<unicode hex="03C2"/>
	<advance width="400"/>
	<outline>
		<contour>
			<point x="232" y="-186" type="line"/>
			<point x="262" y="-152"/>
			<point x="298" y="-110"/>
			<point x="298" y="-66" type="curve" smooth="yes"/>
			<point x="298" y="-18"/>
			<point x="258" y="2"/>
			<point x="192" y="24" type="curve" smooth="yes"/>
			<point x="120" y="48"/>
			<point x="72" y="96"/>
			<point x="72" y="188" type="curve" smooth="yes"/>
			<point x="72" y="348"/>
			<point x="194" y="464"/>
			<point x="322" y="464" type="curve" smooth="yes"/>
			<point x="354" y="464"/>
			<point x="376" y="460"/>
			<point x="408" y="446" type="curve"/>
			<point x="418" y="468" type="line"/>
			<point x="386" y="482"/>
			<point x="358" y="490"/>
			<point x="324" y="490" type="curve" smooth="yes"/>
			<point x="176" y="490"/>
			<point x="44" y="362"/>
			<point x="44" y="182" type="curve" smooth="yes"/>
			<point x="44" y="88"/>
			<point x="96" y="28"/>
			<point x="172" y="2" type="curve" smooth="yes"/>
			<point x="248" y="-24"/>
			<point x="270" y="-44"/>
			<point x="270" y="-70" type="curve" smooth="yes"/>
			<point x="270" y="-104"/>
			<point x="243" y="-137"/>
			<point x="210" y="-172" type="curve"/>
		</contour>
	</outline>
	<anchor name="aboveLC" x="310" y="501"/>
	<anchor name="belowLC" x="120" y="-182"/>
</glyph>
<glyph name="chi" format="2">
	<unicode hex="03C7"/>
	<advance width="404"/>
	<outline>
		<contour>
			<point x="-54" y="-192" type="line"/>
			<point x="183" y="136" type="line"/>
			<point x="187" y="136" type="line"/>
			<point x="220" y="8"/>
			<point x="274" y="-124"/>
			<point x="310" y="-192" type="curve"/>
			<point x="336" y="-181" type="line"/>
			<point x="296" y="-112"/>
			<point x="240" y="26"/>
			<point x="204" y="162" type="curve"/>
			<point x="435" y="478" type="line"/>
			<point x="402" y="478" type="line"/>
			<point x="197" y="190" type="line"/>
			<point x="193" y="190" type="line"/>
			<point x="164" y="298"/>
			<point x="114" y="434"/>
			<point x="82" y="490" type="curve"/>
			<point x="56" y="478" type="line"/>
			<point x="94" y="416"/>
			<point x="142" y="288"/>
			<point x="175" y="162" type="curve"/>
			<point x="-84" y="-186" type="line"/>
		</contour>
	</outline>
	<anchor name="aboveLC" x="240" y="502"/>
	<anchor name="belowLC" x="140" y="-182"/>
</glyph>
<glyph name="digamma" format="2">
	<unicode hex="03DD"/>
	<advance width="382"/>
	<outline>
		<contour>
			<point x="8" y="-180" type="line"/>
			<point x="36" y="-180" type="line"/>
			<point x="60" y="-58"/>
			<point x="80" y="44"/>
			<point x="104" y="158" type="curve"/>
			<point x="323" y="158" type="line"/>
			<point x="328" y="184" type="line"/>
			<point x="110" y="184" type="line"/>
			<point x="162" y="452" type="line"/>
			<point x="400" y="452" type="line"/>
			<point x="406" y="478" type="line"/>
			<point x="140" y="478" type="line"/>
		</contour>
	</outline>
	<anchor name="aboveLC" x="279" y="502"/>
	<anchor name="belowLC" x="30" y="-182"/>
</glyph>
<glyph name="hard" format="2">
	<unicode hex="044A"/>
	<advance width="520"/>
	<outline>
		<contour>
			<point x="293" y="-12" type="curve" smooth="yes"/>
			<point x="381" y="-12"/>
			<point x="472" y="70"/>
			<point x="472" y="180" type="curve" smooth="yes"/>
			<point x="472" y="245"/>
			<point x="432" y="298"/>
			<point x="356" y="298" type="curve" smooth="yes"/>
			<point x="314" y="298"/>
			<point x="272" y="288"/>
			<point x="216" y="248" type="curve"/>
			<point x="278" y="478" type="line"/>
			<point x="66" y="478" type="line"/>
			<point x="60" y="452" type="line"/>
			<point x="242" y="452" type="line"/>
			<point x="170" y="182" type="line" smooth="yes"/>
			<point x="166" y="166"/>
			<point x="162" y="142"/>
			<point x="162" y="116" type="curve" smooth="yes"/>
			<point x="162" y="30"/>
			<point x="217" y="-12"/>
		</contour>
		<contour>
			<point x="296" y="14" type="curve" smooth="yes"/>
			<point x="235" y="14"/>
			<point x="190" y="40"/>
			<point x="190" y="122" type="curve" smooth="yes"/>
			<point x="190" y="144"/>
			<point x="196" y="176"/>
			<point x="208" y="218" type="curve"/>
			<point x="272" y="262"/>
			<point x="312" y="272"/>
			<point x="353" y="272" type="curve" smooth="yes"/>
			<point x="412" y="272"/>
			<point x="444" y="232"/>
			<point x="444" y="174" type="curve" smooth="yes"/>
			<point x="444" y="82"/>
			<point x="363" y="14"/>
		</contour>
	</outline>
</glyph>
<glyph name="dje" format="2">
	<unicode hex="0452"/>
	<advance width="524"/>
	<outline>
		<contour>
			<point x="216" y="-234" type="curve" smooth="yes"/>
			<point x="356" y="-234"/>
			<point x="462" y="64"/>
			<point x="464" y="298" type="curve" smooth="yes"/>
			<point x="465" y="397"/>
			<point x="447" y="470"/>
			<point x="344" y="470" type="curve" smooth="yes"/>
			<point x="286" y="470"/>
			<point x="232" y="432"/>
			<point x="168" y="378" type="curve"/>
			<point x="164" y="378" type="line"/>
			<point x="176" y="424" type="line"/>
			<point x="236" y="722" type="line"/>
			<point x="208" y="722" type="line"/>
			<point x="64" y="0" type="line"/>
			<point x="92" y="0" type="line"/>
			<point x="160" y="338" type="line"/>
			<point x="236" y="412"/>
			<point x="296" y="444"/>
			<point x="340" y="444" type="curve" smooth="yes"/>
			<point x="421" y="444"/>
			<point x="436" y="386"/>
			<point x="436" y="292" type="curve" smooth="yes"/>
			<point x="436" y="84"/>
			<point x="330" y="-208"/>
			<point x="218" y="-208" type="curve" smooth="yes"/>
			<point x="200" y="-208"/>
			<point x="188" y="-206"/>
			<point x="172" y="-196" type="curve"/>
			<point x="160" y="-218" type="line"/>
			<point x="176" y="-230"/>
			<point x="194" y="-234"/>
		</contour>
		<contour>
			<point x="88" y="584" type="line"/>
			<point x="394" y="584" type="line"/>
			<point x="400" y="610" type="line"/>
			<point x="186" y="610" type="line"/>
			<point x="92" y="606" type="line"/>
		</contour>
	</outline>
</glyph>
<glyph name="Esdescender" format="2">
	<unicode hex="04AA"/>
	<advance width="536"/>
	<outline>
		<contour>
			<point x="212" y="-188" type="line"/>
			<point x="234" y="-188" type="line"/>
			<point x="278" y="0" type="line"/>
			<point x="248" y="0" type="line"/>
		</contour>
		<component base="C"/>
	</outline>
</glyph>
<glyph name="ain" format="2">
	<unicode hex="1D25"/>
	<advance width="464"/>
	<outline>
		<contour>
			<point x="46" y="-12" type="curve" smooth="yes"/>
			<point x="100" y="-12"/>
			<point x="160" y="30"/>
			<point x="215" y="80" type="curve"/>
			<point x="252" y="30"/>
			<point x="295" y="-12"/>
			<point x="350" y="-12" type="curve" smooth="yes"/>
			<point x="373" y="-12"/>
			<point x="396" y="-5"/>
			<point x="416" y="7" type="curve"/>
			<point x="402" y="30" type="line"/>
			<point x="386" y="21"/>
			<point x="373" y="14"/>
			<point x="352" y="14" type="curve" smooth="yes"/>
			<point x="310" y="14"/>
			<point x="274" y="49"/>
			<point x="236" y="98" type="curve"/>
			<point x="338" y="178"/>
			<point x="420" y="276"/>
			<point x="420" y="376" type="curve" smooth="yes"/>
			<point x="420" y="444"/>
			<point x="374" y="490"/>
			<point x="294" y="490" type="curve" smooth="yes"/>
			<point x="176" y="490"/>
			<point x="108" y="398"/>
			<point x="108" y="300" type="curve" smooth="yes"/>
			<point x="108" y="226"/>
			<point x="152" y="162"/>
			<point x="200" y="102" type="curve"/>
			<point x="144" y="52"/>
			<point x="94" y="14"/>
			<point x="48" y="14" type="curve" smooth="yes"/>
			<point x="28" y="14"/>
			<point x="13" y="17"/>
			<point x="0" y="28" type="curve"/>
			<point x="-16" y="7" type="line"/>
			<point x="0" y="-5"/>
			<point x="21" y="-12"/>
		</contour>
	</outline>
	<anchor name="aboveLC" x="290" y="502"/>
	<anchor name="belowLC" x="190" y="-22"/>
</glyph>
<glyph name="J.sups" format="2">
	<unicode hex="1D36"/>
	<advance width="292"/>
	<outline>
		<contour>
			<point x="158" y="402" type="curve" smooth="yes"/>
			<point x="232" y="402"/>
			<point x="274" y="456"/>
			<point x="288" y="526" type="curve" smooth="yes"/>
			<point x="350" y="842" type="line"/>
			<point x="322" y="842" type="line"/>
			<point x="260" y="530" type="line" smooth="yes"/>
			<point x="246" y="460"/>
			<point x="214" y="428"/>
			<point x="162" y="428" type="curve" smooth="yes"/>
			<point x="126" y="428"/>
			<point x="102" y="444"/>
			<point x="90" y="482" type="curve"/>
			<point x="66" y="472" type="line"/>
			<point x="80" y="429"/>
			<point x="108" y="402"/>
		</contour>
	</outline>
</glyph>
<glyph name="R.sups" format="2">
	<unicode hex="1D3F"/>
	<advance width="352"/>
	<outline>
		<contour>
			<point x="94" y="410" type="line"/>
			<point x="122" y="410" type="line"/>
			<point x="160" y="610" type="line"/>
			<point x="246" y="610" type="line" smooth="yes"/>
			<point x="343" y="610"/>
			<point x="418" y="666"/>
			<point x="418" y="752" type="curve" smooth="yes"/>
			<point x="418" y="816"/>
			<point x="366" y="842"/>
			<point x="284" y="842" type="curve" smooth="yes"/>
			<point x="180" y="842" type="line"/>
		</contour>
		<contour>
			<point x="166" y="634" type="line"/>
			<point x="202" y="818" type="line"/>
			<point x="268" y="818" type="line" smooth="yes"/>
			<point x="348" y="818"/>
			<point x="390" y="800"/>
			<point x="390" y="750" type="curve" smooth="yes"/>
			<point x="390" y="678"/>
			<point x="334" y="634"/>
			<point x="240" y="634" type="curve" smooth="yes"/>
		</contour>
		<contour>
			<point x="328" y="410" type="line"/>
			<point x="358" y="410" type="line"/>
			<point x="278" y="624" type="line"/>
			<point x="252" y="616" type="line"/>
		</contour>
	</outline>
</glyph>
<glyph name="e.sups" format="2">
	<unicode hex="1D49"/>
	<advance width="316"/>
	<outline>
		<contour>
			<point x="206" y="402" type="curve" smooth="yes"/>
			<point x="246" y="402"/>
			<point x="280" y="412"/>
			<point x="312" y="436" type="curve"/>
			<point x="302" y="454" type="line"/>
			<point x="272" y="434"/>
			<point x="246" y="426"/>
			<point x="208" y="426" type="curve" smooth="yes"/>
			<point x="160" y="426"/>
			<point x="120" y="456"/>
			<point x="120" y="540" type="curve" smooth="yes"/>
			<point x="120" y="638"/>
			<point x="190" y="710"/>
			<point x="258" y="710" type="curve" smooth="yes"/>
			<point x="300" y="710"/>
			<point x="332" y="682"/>
			<point x="332" y="622" type="curve" smooth="yes"/>
			<point x="332" y="611"/>
			<point x="332" y="600"/>
			<point x="328" y="584" type="curve"/>
			<point x="334" y="590" type="line"/>
			<point x="116" y="590" type="line"/>
			<point x="113" y="566" type="line"/>
			<point x="350" y="566" type="line"/>
			<point x="354" y="580"/>
			<point x="358" y="599"/>
			<point x="358" y="624" type="curve" smooth="yes"/>
			<point x="358" y="692"/>
			<point x="322" y="734"/>
			<point x="260" y="734" type="curve" smooth="yes"/>
			<point x="178" y="734"/>
			<point x="92" y="656"/>
			<point x="92" y="534" type="curve" smooth="yes"/>
			<point x="92" y="442"/>
			<point x="144" y="402"/>
		</contour>
	</outline>
</glyph>
<glyph name="k.sups" format="2">
	<unicode hex="1D4F"/>
	<advance width="300"/>
	<outline>
		<contour>
			<point x="94" y="410" type="line"/>
			<point x="120" y="410" type="line"/>
			<point x="136" y="496" type="line"/>
			<point x="226" y="584" type="line"/>
			<point x="298" y="410" type="line"/>
			<point x="324" y="410" type="line"/>
			<point x="246" y="600" type="line"/>
			<point x="368" y="726" type="line"/>
			<point x="338" y="726" type="line"/>
			<point x="148" y="540" type="line"/>
			<point x="144" y="540" type="line"/>
			<point x="214" y="884" type="line"/>
			<point x="188" y="884" type="line"/>
		</contour>
	</outline>
</glyph>
<glyph name="mmiddletilde" format="2">
	<unicode hex="1D6F"/>
	<advance width="876"/>
	<outline>
		<contour>
			<point x="766" y="156" type="curve" smooth="yes"/>
			<point x="842" y="156"/>
			<point x="872" y="218"/>
			<point x="884" y="274" type="curve"/>
			<point x="862" y="280" type="line"/>
			<point x="850" y="226"/>
			<point x="824" y="180"/>
			<point x="770" y="180" type="curve" smooth="yes"/>
			<point x="674" y="180"/>
			<point x="214" y="282"/>
			<point x="106" y="282" type="curve" smooth="yes"/>
			<point x="30" y="282"/>
			<point x="0" y="222"/>
			<point x="-12" y="164" type="curve"/>
			<point x="10" y="158" type="line"/>
			<point x="22" y="214"/>
			<point x="48" y="258"/>
			<point x="102" y="258" type="curve" smooth="yes"/>
			<point x="198" y="258"/>
			<point x="660" y="156"/>
		</contour>
		<component base="m" xOffset="50"/>
	</outline>
	<anchor name="aboveLC" x="510" y="502"/>
	<anchor name="belowLC" x="400" y="-22"/>
</glyph>
<glyph name="ginsular" format="2">
	<unicode hex="1D79"/>
	<advance width="442"/>
	<outline>
		<contour>
			<point x="154" y="-234" type="curve" smooth="yes"/>
			<point x="298" y="-234"/>
			<point x="376" y="-148"/>
			<point x="376" y="-58" type="curve" smooth="yes"/>
			<point x="376" y="10"/>
			<point x="334" y="42"/>
			<point x="250" y="84" type="curve" smooth="yes"/>
			<point x="158" y="130"/>
			<point x="118" y="174"/>
			<point x="118" y="262" type="curve" smooth="yes"/>
			<point x="118" y="344"/>
			<point x="200" y="452"/>
			<point x="346" y="452" type="curve" smooth="yes"/>
			<point x="458" y="452" type="line"/>
			<point x="464" y="478" type="line"/>
			<point x="140" y="478" type="line"/>
			<point x="76" y="472" type="line"/>
			<point x="72" y="452" type="line"/>
			<point x="229" y="452" type="line"/>
			<point x="228" y="448" type="line"/>
			<point x="158" y="420"/>
			<point x="92" y="344"/>
			<point x="92" y="254" type="curve" smooth="yes"/>
			<point x="92" y="179"/>
			<point x="126" y="140"/>
			<point x="166" y="106" type="curve"/>
			<point x="166" y="102" type="line"/>
			<point x="72" y="66"/>
			<point x="-4" y="-13"/>
			<point x="-4" y="-102" type="curve" smooth="yes"/>
			<point x="-4" y="-180"/>
			<point x="53" y="-234"/>
		</contour>
		<contour>
			<point x="156" y="-208" type="curve" smooth="yes"/>
			<point x="70" y="-208"/>
			<point x="22" y="-167"/>
			<point x="22" y="-96" type="curve" smooth="yes"/>
			<point x="22" y="-24"/>
			<point x="82" y="48"/>
			<point x="186" y="88" type="curve"/>
			<point x="307" y="30"/>
			<point x="350" y="0"/>
			<point x="350" y="-64" type="curve" smooth="yes"/>
			<point x="350" y="-140"/>
			<point x="280" y="-208"/>
		</contour>
	</outline>
	<anchor name="aboveLC" x="290" y="502"/>
	<anchor name="belowLC" x="160" y="-222"/>
</glyph>
<glyph name="z.sups" format="2">
	<unicode hex="1DBB"/>
	<advance width="262"/>
	<outline>
		<contour>
			<point x="50" y="410" type="line"/>
			<point x="274" y="410" type="line"/>
			<point x="278" y="434" type="line"/>
			<point x="90" y="434" type="line"/>
			<point x="330" y="710" type="line"/>
			<point x="332" y="726" type="line"/>
			<point x="132" y="726" type="line"/>
			<point x="128" y="702" type="line"/>
			<point x="290" y="702" type="line"/>
			<point x="52" y="426" type="line"/>
		</contour>
	</outline>
</glyph>
<glyph name="quoteright" format="2">
	<unicode hex="2019"/>
	<advance width="202"/>
	<outline>
		<contour>
			<point x="126" y="496" type="line"/>
			<point x="186" y="530"/>
			<point x="226" y="586"/>
			<point x="226" y="656" type="curve" smooth="yes"/>
			<point x="226" y="684"/>
			<point x="210" y="700"/>
			<point x="190" y="700" type="curve" smooth="yes"/>
			<point x="172" y="700"/>
			<point x="158" y="684"/>
			<point x="158" y="664" type="curve" smooth="yes"/>
			<point x="158" y="644"/>
			<point x="172" y="634"/>
			<point x="190" y="634" type="curve" smooth="yes"/>
			<point x="196" y="634"/>
			<point x="206" y="636"/>
			<point x="214" y="646" type="curve"/>
			<point x="188" y="686" type="line"/>
			<point x="194" y="636" type="line"/>
			<point x="194" y="592"/>
			<point x="166" y="548"/>
			<point x="114" y="516" type="curve"/>
		</contour>
	</outline>
</glyph>
<glyph name="primereversed" format="2">
	<unicode hex="2035"/>
	<advance width="202"/>
	<outline>
		<contour>
			<point x="154" y="498" type="line"/>
			<point x="130" y="694" type="line"/>
			<point x="104" y="694" type="line"/>
			<point x="112" y="630" type="line"/>
			<point x="134" y="498" type="line"/>
		</contour>
	</outline>
</glyph>
<glyph name="undertie" format="2">
	<unicode hex="203F"/>
	<advance width="522"/>
	<outline>
		<contour>
			<point x="216" y="-234" type="curve" smooth="yes"/>
			<point x="344" y="-234"/>
			<point x="446" y="-172"/>
			<point x="502" y="-102" type="curve"/>
			<point x="485" y="-84" type="line"/>
			<point x="432" y="-154"/>
			<point x="326" y="-206"/>
			<point x="218" y="-206" type="curve" smooth="yes"/>
			<point x="112" y="-206"/>
			<point x="32" y="-158"/>
			<point x="0" y="-88" type="curve"/>
			<point x="-20" y="-102" type="line"/>
			<point x="14" y="-172"/>
			<point x="86" y="-234"/>
		</contour>
	</outline>
</glyph>
<glyph name="ettironian" format="2">
	<unicode hex="204A"/>
	<advance width="382"/>
	<outline>
		<contour>
			<point x="20" y="-176" type="line"/>
			<point x="50" y="-176" type="line"/>
			<point x="344" y="460" type="line"/>
			<point x="346" y="478" type="line"/>
			<point x="56" y="478" type="line"/>
			<point x="50" y="452" type="line"/>
			<point x="314" y="452" type="line"/>
		</contour>
	</outline>
</glyph>
<glyph name="franc" format="2">
	<unicode hex="20A3"/>
	<advance width="456"/>
	<outline>
		<contour>
			<point x="74" y="0" type="line"/>
			<point x="104" y="0" type="line"/>
			<point x="170" y="326" type="line"/>
			<point x="388" y="326" type="line"/>
			<point x="394" y="352" type="line"/>
			<point x="174" y="352" type="line"/>
			<point x="226" y="614" type="line"/>
			<point x="500" y="614" type="line"/>
			<point x="506" y="640" type="line"/>
			<point x="202" y="640" type="line"/>
		</contour>
		<contour>
			<point x="22" y="150" type="line"/>
			<point x="267" y="150" type="line"/>
			<point x="273" y="174" type="line"/>
			<point x="112" y="174" type="line"/>
			<point x="26" y="170" type="line"/>
		</contour>
	</outline>
</glyph>
<glyph name="peso" format="2">
	<unicode hex="20B1"/>
	<advance width="456"/>
	<outline>
		<contour>
			<point x="44" y="0" type="line"/>
			<point x="74" y="0" type="line"/>
			<point x="126" y="266" type="line"/>
			<point x="172" y="266" type="line" smooth="yes"/>
			<point x="317" y="266"/>
			<point x="422" y="341"/>
			<point x="422" y="494" type="curve" smooth="yes"/>
			<point x="422" y="592"/>
			<point x="354" y="640"/>
			<point x="250" y="640" type="curve" smooth="yes"/>
			<point x="172" y="640" type="line"/>
		</contour>
		<contour>
			<point x="132" y="292" type="line"/>
			<point x="196" y="614" type="line"/>
			<point x="230" y="614" type="line" smooth="yes"/>
			<point x="338" y="614"/>
			<point x="394" y="578"/>
			<point x="394" y="488" type="curve" smooth="yes"/>
			<point x="394" y="353"/>
			<point x="305" y="292"/>
			<point x="168" y="292" type="curve" smooth="yes"/>
		</contour>
		<contour>
			<point x="44" y="390" type="line"/>
			<point x="466" y="390" type="line"/>
			<point x="472" y="414" type="line"/>
			<point x="130" y="414" type="line"/>
			<point x="48" y="410" type="line"/>
		</contour>
		<contour>
			<point x="64" y="498" type="line"/>
			<point x="488" y="498" type="line"/>
			<point x="494" y="522" type="line"/>
			<point x="152" y="522" type="line"/>
			<point x="68" y="518" type="line"/>
		</contour>
	</outline>
</glyph>
<glyph name="cedi" format="2">
	<unicode hex="20B5"/>
	<advance width="456"/>
	<outline>
		<contour>
			<point x="240" y="-12" type="curve" smooth="yes"/>
			<point x="311" y="-12"/>
			<point x="360" y="22"/>
			<point x="396" y="60" type="curve"/>
			<point x="380" y="76" type="line"/>
			<point x="345" y="42"/>
			<point x="298" y="14"/>
			<point x="242" y="14" type="curve" smooth="yes"/>
			<point x="150" y="14"/>
			<point x="94" y="92"/>
			<point x="94" y="256" type="curve" smooth="yes"/>
			<point x="94" y="447"/>
			<point x="216" y="626"/>
			<point x="338" y="626" type="curve" smooth="yes"/>
			<point x="399" y="626"/>
			<point x="430" y="592"/>
			<point x="454" y="542" type="curve"/>
			<point x="474" y="554" type="line"/>
			<point x="450" y="608"/>
			<point x="409" y="652"/>
			<point x="340" y="652" type="curve" smooth="yes"/>
			<point x="200" y="652"/>
			<point x="66" y="461"/>
			<point x="66" y="254" type="curve" smooth="yes"/>
			<point x="66" y="74"/>
			<point x="132" y="-12"/>
		</contour>
		<contour>
			<point x="190" y="-110" type="line"/>
			<point x="218" y="-110" type="line"/>
			<point x="390" y="750" type="line"/>
			<point x="362" y="750" type="line"/>
		</contour>
	</outline>
</glyph>
<glyph name="rupeeindian" format="2">
	<unicode hex="20B9"/>
	<advance width="456"/>
	<outline>
		<contour>
			<point x="78" y="290" type="line"/>
			<point x="158" y="290" type="line" smooth="yes"/>
			<point x="284" y="290"/>
			<point x="408" y="362"/>
			<point x="408" y="504" type="curve" smooth="yes"/>
			<point x="408" y="557"/>
			<point x="384" y="594"/>
			<point x="342" y="614" type="curve"/>
			<point x="492" y="614" type="line"/>
			<point x="500" y="640" type="line"/>
			<point x="148" y="640" type="line"/>
			<point x="144" y="614" type="line"/>
			<point x="210" y="614" type="line" smooth="yes"/>
			<point x="312" y="614"/>
			<point x="378" y="584"/>
			<point x="378" y="500" type="curve" smooth="yes"/>
			<point x="378" y="376"/>
			<point x="276" y="316"/>
			<point x="140" y="316" type="curve" smooth="yes"/>
			<point x="84" y="316" type="line"/>
		</contour>
		<contour>
			<point x="116" y="488" type="line"/>
			<point x="468" y="488" type="line"/>
			<point x="474" y="514" type="line"/>
			<point x="186" y="514" type="line"/>
			<point x="122" y="510" type="line"/>
		</contour>
		<contour>
			<point x="300" y="0" type="line"/>
			<point x="332" y="0" type="line"/>
			<point x="206" y="310" type="line"/>
			<point x="182" y="294" type="line"/>
		</contour>
	</outline>
</glyph>
<glyph name="liraturkish" format="2">
	<unicode hex="20BA"/>
	<advance width="456"/>
	<outline>
		<contour>
			<point x="116" y="18" type="curve"/>
			<point x="240" y="640" type="line"/>
			<point x="212" y="640" type="line"/>
			<point x="80" y="-12" type="line"/>
			<point x="273" y="-8"/>
			<point x="426" y="83"/>
			<point x="420" y="274" type="curve"/>
			<point x="392" y="264" type="line"/>
			<point x="394" y="106"/>
			<point x="262" y="20"/>
		</contour>
		<contour>
			<point x="66" y="352" type="line"/>
			<point x="166" y="402" type="line"/>
			<point x="192" y="414" type="line"/>
			<point x="390" y="514" type="line"/>
			<point x="382" y="536" type="line"/>
			<point x="198" y="442" type="line"/>
			<point x="172" y="430" type="line"/>
			<point x="58" y="374" type="line"/>
		</contour>
		<contour>
			<point x="42" y="236" type="line"/>
			<point x="142" y="286" type="line"/>
			<point x="170" y="298" type="line"/>
			<point x="366" y="398" type="line"/>
			<point x="358" y="420" type="line"/>
			<point x="176" y="326" type="line"/>
			<point x="148" y="314" type="line"/>
			<point x="34" y="258" type="line"/>
		</contour>
	</outline>
</glyph>
<glyph name="arrowup" format="2">
	<unicode hex="2191"/>
	<advance width="594"/>
	<outline>
		<contour>
			<point x="284" y="-26" type="line"/>
			<point x="310" y="-26" type="line"/>
			<point x="310" y="482" type="line"/>
			<point x="544" y="250" type="line"/>
			<point x="562" y="268" type="line"/>
			<point x="300" y="526" type="line"/>
			<point x="294" y="526" type="line"/>
			<point x="32" y="268" type="line"/>
			<point x="50" y="250" type="line"/>
			<point x="284" y="482" type="line"/>
		</contour>
	</outline>
</glyph>
<glyph name="arrowdblup" format="2">
	<unicode hex="21D1"/>
	<advance width="594"/>
	<outline>
		<contour>
			<point x="50" y="239" type="line"/>
			<point x="295" y="493" type="line"/>
			<point x="299" y="493" type="line"/>
			<point x="544" y="239" type="line"/>
			<point x="563" y="258" type="line"/>
			<point x="299" y="526" type="line"/>
			<point x="295" y="526" type="line"/>
			<point x="31" y="258" type="line"/>
		</contour>
		<contour>
			<point x="384" y="-24" type="line"/>
			<point x="411" y="-24" type="line"/>
			<point x="411" y="410" type="line"/>
			<point x="384" y="410" type="line"/>
		</contour>
		<contour>
			<point x="183" y="-24" type="line"/>
			<point x="210" y="-24" type="line"/>
			<point x="210" y="410" type="line"/>
			<point x="183" y="410" type="line"/>
		</contour>
	</outline>
</glyph>
<glyph name="radical" format="2">
	<unicode hex="221A"/>
	<advance width="514"/>
	<outline>
		<contour>
			<point x="204" y="-108" type="line"/>
			<point x="232" y="-108" type="line"/>
			<point x="628" y="820" type="line"/>
			<point x="596" y="820" type="line"/>
			<point x="244" y="-14" type="line"/>
			<point x="226" y="-60" type="line"/>
			<point x="222" y="-60" type="line"/>
			<point x="220" y="-14" type="line"/>
			<point x="174" y="378" type="line"/>
			<point x="68" y="328" type="line"/>
			<point x="72" y="302" type="line"/>
			<point x="148" y="334" type="line"/>
		</contour>
	</outline>
</glyph>
<glyph name="tackright" format="2">
	<unicode hex="22A2"/>
	<advance width="456"/>
	<outline>
		<contour>
			<point x="48" y="110" type="line"/>
			<point x="76" y="110" type="line"/>
			<point x="76" y="318" type="line"/>
			<point x="436" y="318" type="line"/>
			<point x="436" y="344" type="line"/>
			<point x="76" y="344" type="line"/>
			<point x="76" y="546" type="line"/>
			<point x="48" y="546" type="line"/>
		</contour>
	</outline>
</glyph>
<glyph name="tackleft" format="2">
	<unicode hex="22A3"/>
	<advance width="456"/>
	<outline>
		<contour>
			<point x="408" y="110" type="line"/>
			<point x="436" y="110" type="line"/>
			<point x="436" y="546" type="line"/>
			<point x="408" y="546" type="line"/>
			<point x="408" y="344" type="line"/>
			<point x="48" y="344" type="line"/>
			<point x="48" y="318" type="line"/>
			<point x="408" y="318" type="line"/>
		</contour>
	</outline>
</glyph>
<glyph name="tackdown" format="2">
	<unicode hex="22A4"/>
	<advance width="456"/>
	<outline>
		<contour>
			<point x="228" y="110" type="line"/>
			<point x="256" y="110" type="line"/>
			<point x="256" y="520" type="line"/>
			<point x="436" y="520" type="line"/>
			<point x="436" y="546" type="line"/>
			<point x="48" y="546" type="line"/>
			<point x="48" y="520" type="line"/>
			<point x="228" y="520" type="line"/>
		</contour>
	</outline>
</glyph>
<glyph name="tackup" format="2">
	<unicode hex="22A5"/>
	<advance width="456"/>
	<outline>
		<contour>
			<point x="48" y="110" type="line"/>
			<point x="436" y="110" type="line"/>
			<point x="436" y="136" type="line"/>
			<point x="256" y="136" type="line"/>
			<point x="256" y="546" type="line"/>
			<point x="228" y="546" type="line"/>
			<point x="228" y="136" type="line"/>
			<point x="48" y="136" type="line"/>
		</contour>
	</outline>
</glyph>
<glyph name="true" format="2">
	<unicode hex="22A8"/>
	<advance width="456"/>
	<outline>
		<contour>
			<point x="48" y="110" type="line"/>
			<point x="76" y="110" type="line"/>
			<point x="76" y="218" type="line"/>
			<point x="436" y="218" type="line"/>
			<point x="436" y="244" type="line"/>
			<point x="76" y="244" type="line"/>
			<point x="76" y="416" type="line"/>
			<point x="436" y="416" type="line"/>
			<point x="436" y="442" type="line"/>
			<point x="76" y="442" type="line"/>
			<point x="76" y="546" type="line"/>
			<point x="48" y="546" type="line"/>
		</contour>
	</outline>
</glyph>
<glyph name="floorright" format="2">
	<unicode hex="231F"/>
	<advance width="262"/>
	<outline>
		<contour>
			<point x="-42" y="-48" type="line"/>
			<point x="104" y="-48" type="line"/>
			<point x="240" y="640" type="line"/>
			<point x="216" y="640" type="line"/>
			<point x="84" y="-26" type="line"/>
			<point x="-38" y="-26" type="line"/>
		</contour>
	</outline>
</glyph>
<glyph name="integraltp" format="2">
	<unicode hex="2320"/>
	<advance width="278"/>
	<outline>
		<contour>
			<point x="154" y="-400" type="line"/>
			<point x="154" y="576" type="line"/>
			<point x="154" y="687"/>
			<point x="164" y="761"/>
			<point x="222" y="761" type="curve" smooth="yes"/>
			<point x="236" y="761"/>
			<point x="248" y="759"/>
			<point x="256" y="757" type="curve"/>
			<point x="262" y="782" type="line"/>
			<point x="256" y="786"/>
			<point x="240" y="788"/>
			<point x="224" y="788" type="curve" smooth="yes"/>
			<point x="144" y="788"/>
			<point x="126" y="694"/>
			<point x="126" y="574" type="curve"/>
			<point x="126" y="-400" type="line"/>
		</contour>
	</outline>
</glyph>
<glyph name="bracketangleright" format="2">
	<unicode hex="27E9"/>
	<advance width="262"/>
	<outline>
		<contour>
			<point x="-34" y="-174" type="line"/>
			<point x="234" y="272" type="line"/>
			<point x="236" y="284" type="line"/>
			<point x="146" y="730" type="line"/>
			<point x="126" y="722" type="line"/>
			<point x="210" y="284" type="line"/>
			<point x="-52" y="-166" type="line"/>
		</contour>
	</outline>
</glyph>
<glyph name="alefEgypt" format="2">
	<unicode hex="A723"/>
	<advance width="238"/>
	<outline>
		<contour>
			<point x="20" y="-12" type="line"/>
			<point x="118" y="0"/>
			<point x="172" y="64"/>
			<point x="172" y="128" type="curve" smooth="yes"/>
			<point x="172" y="180"/>
			<point x="144" y="210"/>
			<point x="104" y="210" type="curve" smooth="yes"/>
			<point x="64" y="210"/>
			<point x="38" y="180"/>
			<point x="38" y="150" type="curve" smooth="yes"/>
			<point x="38" y="130"/>
			<point x="50" y="118"/>
			<point x="68" y="118" type="curve" smooth="yes"/>
			<point x="90" y="118"/>
			<point x="110" y="134"/>
			<point x="114" y="160" type="curve"/>
			<point x="108" y="160" type="line"/>
			<point x="126" y="158"/>
			<point x="138" y="146"/>
			<point x="138" y="118" type="curve" smooth="yes"/>
			<point x="138" y="70"/>
			<point x="96" y="24"/>
			<point x="22" y="12" type="curve"/>
		</contour>
		<contour>
			<point x="76" y="268" type="line"/>
			<point x="174" y="280"/>
			<point x="228" y="344"/>
			<point x="228" y="408" type="curve" smooth="yes"/>
			<point x="228" y="460"/>
			<point x="200" y="490"/>
			<point x="160" y="490" type="curve" smooth="yes"/>
			<point x="120" y="490"/>
			<point x="94" y="460"/>
			<point x="94" y="430" type="curve" smooth="yes"/>
			<point x="94" y="410"/>
			<point x="106" y="398"/>
			<point x="124" y="398" type="curve" smooth="yes"/>
			<point x="146" y="398"/>
			<point x="166" y="414"/>
			<point x="170" y="440" type="curve"/>
			<point x="164" y="440" type="line"/>
			<point x="182" y="438"/>
			<point x="194" y="426"/>
			<point x="194" y="398" type="curve" smooth="yes"/>
			<point x="194" y="350"/>
			<point x="152" y="304"/>
			<point x="78" y="292" type="curve"/>
		</contour>
	</outline>
</glyph>
<glyph name="sinsular" format="2">
	<unicode hex="A785"/>
	<advance width="328"/>
	<outline>
		<contour>
			<point x="0" y="-222" type="line"/>
			<point x="28" y="-222" type="line"/>
			<point x="136" y="322" type="line"/>
			<point x="180" y="410"/>
			<point x="244" y="462"/>
			<point x="296" y="462" type="curve" smooth="yes"/>
			<point x="324" y="462"/>
			<point x="338" y="458"/>
			<point x="352" y="450" type="curve"/>
			<point x="364" y="474" type="line"/>
			<point x="344" y="484"/>
			<point x="322" y="490"/>
			<point x="302" y="490" type="curve" smooth="yes"/>
			<point x="240" y="490"/>
			<point x="192" y="444"/>
			<point x="152" y="388" type="curve"/>
			<point x="148" y="388" type="line"/>
			<point x="164" y="478" type="line"/>
			<point x="140" y="478" type="line"/>
		</contour>
	</outline>
	<anchor name="aboveLC" x="260" y="502"/>
	<anchor name="belowLC" x="20" y="-222"/>
</glyph>
<glyph name="tinsular" format="2">
	<unicode hex="A787"/>
	<advance width="400"/>
	<outline>
		<contour>
			<point x="190" y="-12" type="curve" smooth="yes"/>
			<point x="252" y="-12"/>
			<point x="306" y="18"/>
			<point x="338" y="46" type="curve"/>
			<point x="324" y="64" type="line"/>
			<point x="291" y="38"/>
			<point x="239" y="14"/>
			<point x="192" y="14" type="curve" smooth="yes"/>
			<point x="112" y="14"/>
			<point x="72" y="62"/>
			<point x="72" y="152" type="curve" smooth="yes"/>
			<point x="72" y="273"/>
			<point x="194" y="452"/>
			<point x="364" y="452" type="curve" smooth="yes"/>
			<point x="416" y="452" type="line"/>
			<point x="422" y="478" type="line"/>
			<point x="144" y="478" type="line"/>
			<point x="76" y="474" type="line"/>
			<point x="70" y="452" type="line"/>
			<point x="253" y="452" type="line"/>
			<point x="252" y="448" type="line"/>
			<point x="164" y="412"/>
			<point x="44" y="292"/>
			<point x="44" y="146" type="curve" smooth="yes"/>
			<point x="44" y="45"/>
			<point x="100" y="-12"/>
		</contour>
	</outline>
	<anchor name="aboveLC" x="260" y="502"/>
	<anchor name="belowLC" x="180" y="-22"/>
</glyph>
<glyph name="Chilatin" format="2">
	<unicode hex="A7B3"/>
	<advance width="451"/>
	<outline>
		<contour>
			<point x="-66" y="-188" type="line"/>
			<point x="-32" y="-188" type="line"/>
			<point x="138" y="86" type="line" smooth="yes"/>
			<point x="164" y="127"/>
			<point x="191" y="169"/>
			<point x="222" y="220" type="curve"/>
			<point x="226" y="220" type="line"/>
			<point x="239" y="169"/>
			<point x="249" y="127"/>
			<point x="258" y="86" type="curve" smooth="yes"/>
			<point x="317" y="-188" type="line"/>
			<point x="350" y="-188" type="line"/>
			<point x="246" y="248" type="line"/>
			<point x="508" y="660" type="line"/>
			<point x="474" y="660" type="line"/>
			<point x="310" y="398" type="line" smooth="yes"/>
			<point x="286" y="359"/>
			<point x="268" y="331"/>
			<point x="239" y="285" type="curve"/>
			<point x="236" y="285" type="line"/>
			<point x="223" y="331"/>
			<point x="216" y="360"/>
			<point x="208" y="398" type="curve" smooth="yes"/>
			<point x="150" y="660" type="line"/>
			<point x="118" y="660" type="line"/>
			<point x="214" y="254" type="line"/>
		</contour>
	</outline>
	<anchor name="aboveUC" x="310" y="682"/>
	<anchor name="belowLC" x="150" y="-222"/>
</glyph>
<glyph name="tincture" format="2">
	<unicode hex="1F748"/>
	<advance width="578"/>
	<outline>
		<contour>
			<point x="180" y="0" type="line"/>
			<point x="210" y="0" type="line"/>
			<point x="254" y="218" type="line"/>
			<point x="378" y="218" type="line" smooth="yes"/>
			<point x="488" y="218"/>
			<point x="560" y="284"/>
			<point x="560" y="372" type="curve" smooth="yes"/>
			<point x="560" y="448"/>
			<point x="500" y="478"/>
			<point x="410" y="478" type="curve" smooth="yes"/>
			<point x="304" y="478" type="line"/>
			<point x="336" y="632" type="line"/>
			<point x="542" y="632" type="line"/>
			<point x="548" y="660" type="line"/>
			<point x="106" y="660" type="line"/>
			<point x="100" y="632" type="line"/>
			<point x="306" y="632" type="line"/>
		</contour>
		<contour>
			<point x="258" y="244" type="line"/>
			<point x="300" y="452" type="line"/>
			<point x="404" y="452" type="line" smooth="yes"/>
			<point x="488" y="452"/>
			<point x="532" y="430"/>
			<point x="532" y="366" type="curve" smooth="yes"/>
			<point x="532" y="296"/>
			<point x="474" y="244"/>
			<point x="366" y="244" type="curve" smooth="yes"/>
		</contour>
		<contour>
			<point x="472" y="0" type="line"/>
			<point x="504" y="0" type="line"/>
			<point x="396" y="230" type="line"/>
			<point x="372" y="218" type="line"/>
		</contour>
	</outline>
</glyph>
<glyph name="Eogonek.d" format="2">
	<advance width="484"/>
	<outline>
		<contour>
			<point x="206" y="-214" type="curve" smooth="yes"/>
			<point x="232" y="-214"/>
			<point x="254" y="-204"/>
			<point x="278" y="-182" type="curve"/>
			<point x="266" y="-166" type="line"/>
			<point x="244" y="-182"/>
			<point x="230" y="-188"/>
			<point x="210" y="-188" type="curve" smooth="yes"/>
			<point x="182" y="-188"/>
			<point x="162" y="-170"/>
			<point x="162" y="-142" type="curve" smooth="yes"/>
			<point x="162" y="-82"/>
			<point x="240" y="0"/>
			<point x="276" y="0" type="curve" smooth="yes"/>
			<point x="390" y="0" type="line"/>
			<point x="396" y="26" type="line"/>
			<point x="74" y="26" type="line"/>
			<point x="138" y="338" type="line"/>
			<point x="400" y="338" type="line"/>
			<point x="406" y="364" type="line"/>
			<point x="142" y="364" type="line"/>
			<point x="196" y="634" type="line"/>
			<point x="508" y="634" type="line"/>
			<point x="514" y="660" type="line"/>
			<point x="172" y="660" type="line"/>
			<point x="40" y="0" type="line"/>
			<point x="226" y="0" type="line"/>
			<point x="186" y="-32"/>
			<point x="132" y="-90"/>
			<point x="132" y="-148" type="curve" smooth="yes"/>
			<point x="132" y="-192"/>
			<point x="164" y="-214"/>
		</contour>
	</outline>
	<anchor name="aboveUC" x="362" y="682"/>
	<anchor name="belowLC" x="200" y="-222"/>
</glyph>
<glyph name="aogonek.b" format="2">
	<advance width="524"/>
	<outline>
		<contour>
			<point x="342" y="-212" type="curve" smooth="yes"/>
			<point x="368" y="-212"/>
			<point x="390" y="-202"/>
			<point x="414" y="-180" type="curve"/>
			<point x="402" y="-164" type="line"/>
			<point x="380" y="-180"/>
			<point x="366" y="-186"/>
			<point x="346" y="-186" type="curve" smooth="yes"/>
			<point x="320" y="-186"/>
			<point x="302" y="-168"/>
			<point x="302" y="-138" type="curve" smooth="yes"/>
			<point x="302" y="-95"/>
			<point x="334" y="-46"/>
			<point x="424" y="-2" type="curve"/>
			<point x="418" y="20" type="line"/>
			<point x="412" y="18"/>
			<point x="408" y="18"/>
			<point x="404" y="18" type="curve" smooth="yes"/>
			<point x="394" y="18"/>
			<point x="390" y="24"/>
			<point x="390" y="32" type="curve" smooth="yes"/>
			<point x="390" y="35"/>
			<point x="390" y="40"/>
			<point x="392" y="48" type="curve" smooth="yes"/>
			<point x="478" y="478" type="line"/>
			<point x="454" y="478" type="line"/>
			<point x="436" y="410" type="line"/>
			<point x="432" y="410" type="line"/>
			<point x="406" y="458"/>
			<point x="364" y="490"/>
			<point x="306" y="490" type="curve" smooth="yes"/>
			<point x="174" y="490"/>
			<point x="46" y="344"/>
			<point x="46" y="160" type="curve" smooth="yes"/>
			<point x="46" y="48"/>
			<point x="102" y="-12"/>
			<point x="186" y="-12" type="curve" smooth="yes"/>
			<point x="254" y="-12"/>
			<point x="316" y="26"/>
			<point x="366" y="78" type="curve"/>
			<point x="370" y="78" type="line"/>
			<point x="364" y="50"/>
			<point x="362" y="37"/>
			<point x="362" y="28" type="curve" smooth="yes"/>
			<point x="362" y="4"/>
			<point x="378" y="-8"/>
			<point x="396" y="-8" type="curve"/>
			<point x="392" y="4" type="line"/>
			<point x="314" y="-34"/>
			<point x="272" y="-91"/>
			<point x="272" y="-144" type="curve" smooth="yes"/>
			<point x="272" y="-190"/>
			<point x="302" y="-212"/>
		</contour>
		<contour>
			<point x="188" y="14" type="curve" smooth="yes"/>
			<point x="118" y="14"/>
			<point x="74" y="64"/>
			<point x="74" y="166" type="curve" smooth="yes"/>
			<point x="74" y="314"/>
			<point x="184" y="464"/>
			<point x="304" y="464" type="curve" smooth="yes"/>
			<point x="352" y="464"/>
			<point x="392" y="438"/>
			<point x="430" y="372" type="curve"/>
			<point x="378" y="122" type="line"/>
			<point x="318" y="54"/>
			<point x="254" y="14"/>
		</contour>
	</outline>
	<anchor name="aboveLC" x="310" y="502"/>
</glyph>
<glyph name="astroke.a" format="2">
	<advance width="474"/>
	<outline>
		<contour>
			<point x="98" y="-40" type="line"/>
			<point x="430" y="506" type="line"/>
			<point x="408" y="518" type="line"/>
			<point x="76" y="-28" type="line"/>
		</contour>
		<component base="a.a"/>
	</outline>
	<anchor name="aboveLC" x="290" y="502"/>
	<anchor name="belowLC" x="200" y="-22"/>
</glyph>
<glyph name="breveacute" format="2">
	<outline>
		<contour>
			<point x="110" y="570" type="curve" smooth="yes"/>
			<point x="212" y="570"/>
			<point x="266" y="654"/>
			<point x="284" y="716" type="curve"/>
			<point x="258" y="720" type="line"/>
			<point x="240" y="662"/>
			<point x="190" y="596"/>
			<point x="116" y="596" type="curve" smooth="yes"/>
			<point x="38" y="596"/>
			<point x="18" y="658"/>
			<point x="18" y="718" type="curve"/>
			<point x="-8" y="716" type="line"/>
			<point x="-8" y="650"/>
			<point x="12" y="570"/>
		</contour>
		<contour>
			<point x="90" y="700" type="line"/>
			<point x="120" y="700" type="line"/>
			<point x="240" y="796" type="line"/>
			<point x="238" y="800" type="line"/>
			<point x="202" y="800" type="line"/>
		</contour>
	</outline>
	<anchor name="_aboveLC" x="100" y="502"/>
</glyph>
<glyph name="caroncmb.a" format="2">
	<outline>
		<contour>
			<point x="28" y="548" type="line"/>
			<point x="50" y="548" type="line"/>
			<point x="88" y="704" type="line"/>
			<point x="96" y="752" type="line"/>
			<point x="68" y="752" type="line"/>
		</contour>
	</outline>
</glyph>
<glyph name="carondotaccent" format="2">
	<outline>
		<contour>
			<point x="100" y="570" type="line"/>
			<point x="120" y="570" type="line"/>
			<point x="270" y="704" type="line"/>
			<point x="240" y="704" type="line"/>
			<point x="116" y="604" type="line"/>
			<point x="112" y="604" type="line"/>
			<point x="26" y="704" type="line"/>
			<point x="0" y="704" type="line"/>
		</contour>
		<contour>
			<point x="138" y="720" type="curve" smooth="yes"/>
			<point x="156" y="720"/>
			<point x="174" y="736"/>
			<point x="174" y="758" type="curve" smooth="yes"/>
			<point x="174" y="776"/>
			<point x="162" y="788"/>
			<point x="146" y="788" type="curve" smooth="yes"/>
			<point x="128" y="788"/>
			<point x="110" y="772"/>
			<point x="110" y="748" type="curve" smooth="yes"/>
			<point x="110" y="732"/>
			<point x="122" y="720"/>
		</contour>
	</outline>
	<anchor name="_aboveLC" x="100" y="502"/>
</glyph>
<glyph name="circumflexacute.cap" format="2">
	<outline>
		<contour>
			<point x="10" y="710" type="line"/>
			<point x="44" y="710" type="line"/>
			<point x="156" y="780" type="line"/>
			<point x="160" y="780" type="line"/>
			<point x="240" y="710" type="line"/>
			<point x="270" y="710" type="line"/>
			<point x="170" y="810" type="line"/>
			<point x="150" y="810" type="line"/>
		</contour>
		<contour>
			<point x="220" y="780" type="line"/>
			<point x="246" y="780" type="line"/>
			<point x="370" y="876" type="line"/>
			<point x="368" y="880" type="line"/>
			<point x="330" y="880" type="line"/>
		</contour>
	</outline>
	<anchor name="_aboveUC" x="130" y="682"/>
</glyph>
<glyph name="dblgravecmb.cap" format="2">
	<outline>
		<contour>
			<point x="46" y="710" type="line"/>
			<point x="80" y="710" type="line"/>
			<point x="-22" y="830" type="line"/>
			<point x="-68" y="830" type="line"/>
			<point x="-70" y="826" type="line"/>
		</contour>
		<contour>
			<point x="226" y="710" type="line"/>
			<point x="260" y="710" type="line"/>
			<point x="158" y="830" type="line"/>
			<point x="112" y="830" type="line"/>
			<point x="110" y="826" type="line"/>
		</contour>
	</outline>
	<anchor name="_aboveUC" x="130" y="682"/>
</glyph>
<glyph name="dieresiscaron.cap" format="2">
	<outline>
		<contour>
			<point x="54" y="726" type="curve" smooth="yes"/>
			<point x="70" y="726"/>
			<point x="86" y="742"/>
			<point x="86" y="762" type="curve" smooth="yes"/>
			<point x="86" y="780"/>
			<point x="76" y="790"/>
			<point x="60" y="790" type="curve" smooth="yes"/>
			<point x="44" y="790"/>
			<point x="28" y="774"/>
			<point x="28" y="752" type="curve" smooth="yes"/>
			<point x="28" y="736"/>
			<point x="38" y="726"/>
		</contour>
		<contour>
			<point x="236" y="726" type="curve" smooth="yes"/>
			<point x="252" y="726"/>
			<point x="268" y="742"/>
			<point x="268" y="762" type="curve" smooth="yes"/>
			<point x="268" y="780"/>
			<point x="258" y="790"/>
			<point x="242" y="790" type="curve" smooth="yes"/>
			<point x="226" y="790"/>
			<point x="210" y="774"/>
			<point x="210" y="752" type="curve" smooth="yes"/>
			<point x="210" y="736"/>
			<point x="220" y="726"/>
		</contour>
		<contour>
			<point x="154" y="830" type="line"/>
			<point x="174" y="830" type="line"/>
			<point x="314" y="920" type="line"/>
			<point x="280" y="920" type="line"/>
			<point x="168" y="860" type="line"/>
			<point x="164" y="860" type="line"/>
			<point x="84" y="920" type="line"/>
			<point x="54" y="920" type="line"/>
		</contour>
	</outline>
	<anchor name="_aboveUC" x="130" y="682"/>
</glyph>
<glyph name="dieresiscmb.cap" format="2">
	<outline>
		<contour>
			<point x="54" y="726" type="curve" smooth="yes"/>
			<point x="70" y="726"/>
			<point x="86" y="742"/>
			<point x="86" y="762" type="curve" smooth="yes"/>
			<point x="86" y="780"/>
			<point x="76" y="790"/>
			<point x="60" y="790" type="curve" smooth="yes"/>
			<point x="44" y="790"/>
			<point x="28" y="774"/>
			<point x="28" y="752" type="curve" smooth="yes"/>
			<point x="28" y="736"/>
			<point x="38" y="726"/>
		</contour>
		<contour>
			<point x="236" y="726" type="curve" smooth="yes"/>
			<point x="252" y="726"/>
			<point x="268" y="742"/>
			<point x="268" y="762" type="curve" smooth="yes"/>
			<point x="268" y="780"/>
			<point x="258" y="790"/>
			<point x="242" y="790" type="curve" smooth="yes"/>
			<point x="226" y="790"/>
			<point x="210" y="774"/>
			<point x="210" y="752" type="curve" smooth="yes"/>
			<point x="210" y="736"/>
			<point x="220" y="726"/>
		</contour>
	</outline>
	<anchor name="_aboveUC" x="130" y="682"/>
</glyph>
<glyph name="f_t" format="2">
	<advance width="490"/>
	<outline>
		<contour>
			<point x="48" y="0" type="line"/>
			<point x="76" y="0" type="line"/>
			<point x="196" y="598" type="line" smooth="yes"/>
			<point x="208" y="656"/>
			<point x="240" y="708"/>
			<point x="290" y="708" type="curve" smooth="yes"/>
			<point x="318" y="708"/>
			<point x="334" y="702"/>
			<point x="350" y="692" type="curve"/>
			<point x="362" y="712" type="line"/>
			<point x="346" y="724"/>
			<point x="324" y="734"/>
			<point x="292" y="734" type="curve" smooth="yes"/>
			<point x="236" y="734"/>
			<point x="187" y="692"/>
			<point x="168" y="598" type="curve" smooth="yes"/>
		</contour>
		<contour>
			<point x="370" y="-12" type="curve" smooth="yes"/>
			<point x="398" y="-12"/>
			<point x="424" y="0"/>
			<point x="442" y="10" type="curve"/>
			<point x="432" y="32" type="line"/>
			<point x="416" y="24"/>
			<point x="396" y="14"/>
			<point x="372" y="14" type="curve" smooth="yes"/>
			<point x="318" y="14"/>
			<point x="302" y="38"/>
			<point x="302" y="84" type="curve" smooth="yes"/>
			<point x="302" y="98"/>
			<point x="304" y="110"/>
			<point x="306" y="122" type="curve" smooth="yes"/>
			<point x="374" y="452" type="line"/>
			<point x="506" y="452" type="line"/>
			<point x="512" y="478" type="line"/>
			<point x="380" y="478" type="line"/>
			<point x="412" y="636" type="line"/>
			<point x="388" y="636" type="line"/>
			<point x="352" y="478" type="line"/>
			<point x="144" y="478" type="line"/>
			<point x="76" y="474" type="line"/>
			<point x="70" y="452" type="line"/>
			<point x="346" y="452" type="line"/>
			<point x="278" y="124" type="line" smooth="yes"/>
			<point x="275" y="108"/>
			<point x="274" y="96"/>
			<point x="274" y="78" type="curve" smooth="yes"/>
			<point x="274" y="30"/>
			<point x="298" y="-12"/>
		</contour>
	</outline>
</glyph>
<glyph name="lbardbl.a" format="2">
	<advance width="256"/>
	<outline>
		<contour>
			<point x="50" y="442" type="line"/>
			<point x="282" y="442" type="line"/>
			<point x="288" y="466" type="line"/>
			<point x="158" y="466" type="line"/>
			<point x="56" y="462" type="line"/>
		</contour>
		<contour>
			<point x="28" y="334" type="line"/>
			<point x="260" y="334" type="line"/>
			<point x="266" y="358" type="line"/>
			<point x="136" y="358" type="line"/>
			<point x="34" y="354" type="line"/>
		</contour>
		<component base="l.a" xOffset="20"/>
	</outline>
	<anchor name="aboveUC" x="220" y="732"/>
	<anchor name="belowLC" x="80" y="-22"/>
</glyph>
<glyph name="seven.dnom" format="2">
	<advance width="344"/>
	<outline>
		<contour>
			<point x="82" y="0" type="curve"/>
			<point x="112" y="0" type="line"/>
			<point x="140" y="124"/>
			<point x="188" y="244"/>
			<point x="320" y="372" type="curve"/>
			<point x="322" y="390" type="line"/>
			<point x="76" y="390" type="line"/>
			<point x="70" y="366" type="line"/>
			<point x="284" y="366" type="line"/>
			<point x="176" y="256"/>
			<point x="116" y="136"/>
		</contour>
	</outline>
</glyph>
<glyph name="tonoscmb" format="2">
	<outline>
		<contour>
			<point x="70" y="560" type="line"/>
			<point x="94" y="560" type="line"/>
			<point x="190" y="726" type="line"/>
			<point x="188" y="730" type="line"/>
			<point x="158" y="730" type="line"/>
		</contour>
	</outline>
	<anchor name="_aboveLC" x="100" y="502"/>
</glyph>
<glyph name="zero.dnom" format="2">
	<advance width="342"/>
	<outline>
		<contour>
			<point x="128" y="-12" type="curve" smooth="yes"/>
			<point x="244" y="-12"/>
			<point x="302" y="144"/>
			<point x="302" y="256" type="curve" smooth="yes"/>
			<point x="302" y="336"/>
			<point x="268" y="402"/>
			<point x="192" y="402" type="curve" smooth="yes"/>
			<point x="76" y="402"/>
			<point x="18" y="246"/>
			<point x="18" y="134" type="curve" smooth="yes"/>
			<point x="18" y="54"/>
			<point x="52" y="-12"/>
		</contour>
		<contour>
			<point x="130" y="12" type="curve" smooth="yes"/>
			<point x="69" y="12"/>
			<point x="46" y="69"/>
			<point x="46" y="140" type="curve" smooth="yes"/>
			<point x="46" y="234"/>
			<point x="94" y="378"/>
			<point x="190" y="378" type="curve" smooth="yes"/>
			<point x="251" y="378"/>
			<point x="274" y="321"/>
			<point x="274" y="250" type="curve" smooth="yes"/>
			<point x="274" y="156"/>
			<point x="226" y="12"/>
		</contour>
	</outline>
</glyph>
<glyph name="zhedescender.a" format="2">
	<advance width="672"/>
	<outline>
		<contour>
			<point x="534" y="-172" type="line"/>
			<point x="556" y="-172" type="line"/>
			<point x="598" y="12" type="line"/>
			<point x="600" y="26" type="line"/>
			<point x="560" y="26" type="line"/>
			<point x="554" y="0" type="line"/>
			<point x="567" y="0" type="line"/>
		</contour>
		<component base="zhe.a"/>
	</outline>
</glyph>
